<?xml version="1.0" encoding="UTF-8"?>
<svg id="Capa_2" data-name="Capa 2" xmlns="http://www.w3.org/2000/svg" viewBox="0 0 391.45 391.45">
  <defs>
    <style>
      .cls-1 {
        fill: #cd1417;
      }
    </style>
  </defs>
  <g id="Layer_1" data-name="Layer 1">
    <g>
      <path class="cls-1" d="m93.51,241.98c-13.08-3.69-26.15-3.69-39.23,0-13.08,3.69-24.84,10.77-35.29,21.25L0,282.27l24.8,24.86,16.34-16.38c8.68-8.7,18.36-12.89,29.03-12.56,10.67.33,20.54,5.05,29.61,14.14,8.68,8.7,13.16,18.32,13.44,28.85.28,10.53-3.98,20.21-12.77,29.02l-16.34,16.38,24.8,24.86,18.99-19.04c10.67-10.7,17.84-22.55,21.52-35.55,3.68-13,3.76-25.92.25-38.75-3.51-12.83-10.46-24.46-20.86-34.88-10.45-10.48-22.21-17.56-35.29-21.25"/>
      <g>
        <path class="cls-1" d="m241.98,297.94c-3.69,13.08-3.69,26.15,0,39.23,3.69,13.08,10.77,24.84,21.24,35.29l19.04,18.99,24.86-24.8-16.38-16.34c-8.7-8.68-12.89-18.36-12.56-29.03.33-10.67,5.04-20.54,14.14-29.61,8.7-8.68,18.32-13.16,28.85-13.44,10.53-.27,20.21,3.98,29.02,12.77l16.38,16.34,24.86-24.8-19.04-18.99c-10.7-10.67-22.55-17.84-35.55-21.52-13-3.68-25.92-3.76-38.75-.25-12.83,3.51-24.46,10.46-34.88,20.86-10.48,10.45-17.56,22.21-21.25,35.29"/>
        <g>
          <path class="cls-1" d="m297.94,149.47c13.08,3.69,26.15,3.69,39.23,0,13.08-3.69,24.84-10.77,35.29-21.25l18.99-19.04-24.8-24.86-16.34,16.38c-8.68,8.7-18.35,12.89-29.03,12.56-10.67-.33-20.54-5.05-29.61-14.14-8.68-8.7-13.16-18.32-13.44-28.85-.27-10.53,3.98-20.21,12.77-29.02l16.34-16.38L282.55,0l-18.99,19.04c-10.67,10.7-17.84,22.55-21.52,35.55-3.68,13-3.76,25.92-.25,38.75,3.51,12.83,10.46,24.46,20.86,34.88,10.45,10.48,22.21,17.56,35.29,21.25"/>
          <g>
            <path class="cls-1" d="m235.15,183.25l-2.75-6.66s6.39-14.71,5.82-15.28l-8.45-8.43c-.59-.58-15,6.13-15,6.13l-6.65-2.75s-5.87-14.91-6.68-14.91h-11.93c-.83,0-6.26,14.95-6.26,14.95l-6.64,2.75s-14.72-6.38-15.28-5.82l-8.44,8.45c-.58.58,6.13,15,6.13,15l-2.74,6.65s-14.92,5.87-14.92,6.66v11.94c0,.83,14.95,6.28,14.95,6.28l2.74,6.64s-6.38,14.71-5.83,15.27l8.45,8.45c.57.58,14.99-6.15,14.99-6.15l6.66,2.75s5.87,14.91,6.68,14.91h11.93c.83,0,6.27-14.95,6.27-14.95l6.66-2.75s14.69,6.39,15.25,5.83l8.45-8.44c.59-.59-6.15-15-6.15-15l2.74-6.65s14.93-5.88,14.93-6.68v-11.93c0-.83-14.94-6.25-14.94-6.25Zm-23.73,12.46c0,8.64-7.04,15.69-15.69,15.69s-15.69-7.04-15.69-15.69,7.05-15.67,15.69-15.67c8.65,0,15.69,7.03,15.69,15.67Z"/>
            <path class="cls-1" d="m149.46,93.51c3.69-13.08,3.69-26.15,0-39.23-3.69-13.08-10.77-24.84-21.24-35.29L109.18,0l-24.86,24.8,16.38,16.34c8.7,8.68,12.89,18.36,12.56,29.03-.33,10.67-5.04,20.54-14.14,29.61-8.7,8.68-18.32,13.16-28.85,13.44-10.53.27-20.21-3.98-29.02-12.77l-16.38-16.34L0,108.89l19.04,18.99c10.7,10.67,22.55,17.84,35.55,21.52,13,3.68,25.92,3.76,38.75.25,12.83-3.51,24.46-10.46,34.88-20.86,10.48-10.45,17.56-22.21,21.24-35.29"/>
          </g>
        </g>
      </g>
    </g>
  </g>
</svg>