<?xml version="1.0" encoding="UTF-8"?>
<svg id="Capa_2" data-name="Capa 2" xmlns="http://www.w3.org/2000/svg" viewBox="0 0 479.03 131.77">
  <defs>
    <style>
      .cls-1 {
        fill: #cd1417;
      }
    </style>
  </defs>
  <g id="Layer_1" data-name="Layer 1">
    <g>
      <rect class="cls-1" x="107.57" y="1.16" width="33.03" height="130.61"/>
      <polygon class="cls-1" points="479.03 30.91 440.53 30.91 440.53 131.77 407.5 131.77 407.5 30.91 368.61 30.91 368.61 1.16 479.03 1.16 479.03 30.91"/>
      <path class="cls-1" d="m348.42,31.98c-5.64-10.05-13.48-17.89-23.53-23.53-10.05-5.64-21.34-8.45-33.87-8.45h-22.78v29.74h19.6c10.41,0,18.72,3.3,24.92,9.9,6.2,6.6,9.3,15.34,9.3,26.21s-3.07,18.85-9.2,25.32c-6.13,6.47-14.47,9.7-25.02,9.7h-19.6v29.74h22.78c12.8,0,24.19-2.78,34.17-8.36,9.98-5.57,17.76-13.25,23.33-23.03,5.57-9.78,8.36-20.91,8.36-33.37s-2.82-23.82-8.46-33.87"/>
      <path class="cls-1" d="m240.31,31.98c-5.64-10.05-13.48-17.89-23.53-23.53-10.05-5.64-21.34-8.45-33.87-8.45h-22.78v29.74h19.6c10.41,0,18.72,3.3,24.92,9.9,6.2,6.6,9.3,15.34,9.3,26.21s-3.07,18.85-9.2,25.32c-6.13,6.47-14.47,9.7-25.02,9.7h-19.6v29.74h22.78c12.8,0,24.19-2.78,34.17-8.36,9.98-5.57,17.76-13.25,23.33-23.03,5.57-9.78,8.36-20.91,8.36-33.37s-2.82-23.82-8.46-33.87"/>
      <path class="cls-1" d="m8.46,99.79c5.64,10.05,13.48,17.89,23.53,23.53,10.05,5.64,21.34,8.45,33.87,8.45h22.78v-29.74h-19.6c-10.41,0-18.72-3.3-24.92-9.9-6.2-6.6-9.3-15.33-9.3-26.21s3.07-18.85,9.2-25.32c6.13-6.47,14.47-9.7,25.02-9.7h19.6V1.16h-22.78c-12.8,0-24.19,2.79-34.17,8.36-9.98,5.57-17.76,13.25-23.33,23.03C2.79,42.33,0,53.45,0,65.92s2.82,23.82,8.46,33.87"/>
    </g>
  </g>
</svg>