<?xml version="1.0" encoding="UTF-8"?>
<svg id="Capa_2" data-name="Capa 2" xmlns="http://www.w3.org/2000/svg" viewBox="0 0 2375.49 298.4">
  <defs>
    <style>
      .cls-1 {
        fill: #f0e7e0;
        stroke-width: 0px;
      }
    </style>
  </defs>
  <g id="Capa_1-2" data-name="Capa 1">
    <g>
      <path class="cls-1" d="m0,294.37V8.07h66.13v228.23h138.72v58.07H0Z"/>
      <path class="cls-1" d="m217.35,232.04c0-13.77,3.89-25.82,11.69-36.15,7.79-10.33,18.55-18.48,32.26-24.44,13.71-5.96,29.43-8.94,47.18-8.94,8.6,0,17.06.74,25.4,2.22,8.33,1.48,15.59,3.57,21.78,6.25v-9.25c0-11.18-3.5-19.75-10.49-25.73-6.99-5.98-17.61-8.97-31.86-8.97-11.83,0-22.92,2.01-33.27,6.04-10.35,4.04-21.31,9.82-32.87,17.34l-19.35-41.13c13.98-9.13,28.56-15.99,43.75-20.57,15.18-4.56,31.25-6.85,48.19-6.85,31.72,0,56.39,7.45,74,22.33,17.6,14.89,26.41,36.43,26.41,64.62v54.15c0,6.33,1.01,10.74,3.02,13.24,2.01,2.51,5.58,4.02,10.69,4.54v53.63c-5.38,1.07-10.42,1.88-15.12,2.42-4.71.54-8.81.81-12.3.81-12.1,0-21.31-2.42-27.62-7.25-6.33-4.84-10.28-11.43-11.9-19.76l-1.22-9.28c-9.41,12.1-20.63,21.31-33.66,27.63-13.05,6.31-26.68,9.47-40.93,9.47s-26.55-2.91-37.7-8.74c-11.16-5.83-19.96-13.77-26.41-23.84-6.46-10.07-9.68-21.33-9.68-33.78Zm128.23,7.56c2.95-2.33,5.38-4.92,7.25-7.77,1.88-2.84,2.83-5.57,2.83-8.15v-18.27c-5.38-2.07-11.36-3.68-17.95-4.85-6.59-1.17-12.7-1.75-18.35-1.75-11.83,0-21.64,2.53-29.43,7.58-7.8,5.05-11.69,11.72-11.69,20.01,0,4.66,1.34,8.94,4.03,12.82,2.68,3.89,6.38,6.99,11.09,9.32,4.7,2.33,10.28,3.5,16.74,3.5s12.9-1.17,19.35-3.5c6.46-2.32,11.83-5.3,16.13-8.93Z"/>
      <path class="cls-1" d="m593.98,298.4c-16.13,0-30.25-3.43-42.34-10.28-12.1-6.85-21.64-16.46-28.63-28.83v35.08h-56.05V0h64.52v120.57c6.99-12.36,16.34-21.91,28.03-28.63,11.69-6.72,25.47-10.08,41.33-10.08,13.44,0,25.74,2.85,36.9,8.54,11.15,5.7,20.83,13.51,29.04,23.45,8.2,9.93,14.58,21.45,19.16,34.56,4.56,13.11,6.85,27.35,6.85,42.71s-2.49,29.14-7.46,42.12c-4.97,12.98-11.9,24.37-20.76,34.17-8.87,9.81-19.29,17.42-31.25,22.85-11.97,5.43-25.07,8.14-39.31,8.14Zm-18.15-54.43c7.26,0,14.05-1.37,20.37-4.11,6.31-2.74,11.76-6.46,16.33-11.16,4.57-4.69,8.07-10.23,10.49-16.63,2.42-6.4,3.63-13.38,3.63-20.95,0-9.66-2.02-18.66-6.05-27.02-4.03-8.35-9.61-15-16.73-19.96-7.13-4.96-15.39-7.44-24.81-7.44-6.72,0-13.17,1.57-19.35,4.7-6.19,3.13-11.69,7.37-16.54,12.72-4.84,5.36-8.74,11.43-11.69,18.21v43.06c2.15,4.45,4.84,8.43,8.07,11.95,3.22,3.53,6.79,6.46,10.69,8.81,3.89,2.35,8.07,4.25,12.5,5.68,4.43,1.44,8.8,2.15,13.1,2.15Z"/>
      <path class="cls-1" d="m825.84,298.4c-18.01,0-34.07-2.91-48.19-8.74-14.11-5.83-26.01-13.77-35.69-23.84-9.67-10.06-17.01-21.59-21.98-34.56-4.97-12.98-7.46-26.62-7.46-40.93s2.48-28.35,7.46-41.33c4.97-12.98,12.31-24.5,21.98-34.56,9.68-10.06,21.57-18.01,35.69-23.83,14.12-5.83,30.17-8.74,48.19-8.74s34.01,2.91,47.99,8.74c13.98,5.83,25.81,13.77,35.49,23.83,9.67,10.07,17.06,21.59,22.17,34.56,5.11,12.98,7.66,26.76,7.66,41.33s-2.55,27.94-7.66,40.93c-5.11,12.98-12.5,24.5-22.17,34.56-9.68,10.07-21.51,18.01-35.49,23.84-13.98,5.82-29.98,8.74-47.99,8.74Zm-47.18-108.07c0,10.7,2.08,20.1,6.25,28.19,4.17,8.09,9.74,14.36,16.73,18.79,6.99,4.44,15.05,6.66,24.19,6.66s16.87-2.28,24-6.85c7.12-4.57,12.7-10.9,16.73-18.99,4.03-8.09,6.04-17.35,6.04-27.79s-2.01-20.09-6.04-28.18c-4.03-8.09-9.61-14.36-16.73-18.8-7.13-4.43-15.13-6.65-24-6.65s-17.21,2.22-24.19,6.65c-6.99,4.44-12.56,10.71-16.73,18.8-4.17,8.09-6.25,17.48-6.25,28.18Z"/>
      <path class="cls-1" d="m1105.28,137.91c-15.59,0-29.71,2.49-42.34,7.46-12.64,4.98-21.78,12.3-27.43,21.98v127.02h-64.52V85.08h59.28v40.33c7.26-14.25,16.67-25.41,28.22-33.47,11.56-8.07,23.65-12.23,36.29-12.5h6.66c1.48,0,2.76.14,3.83.4v58.07Z"/>
      <path class="cls-1" d="m1117.38,232.04c0-13.77,3.89-25.82,11.69-36.15,7.79-10.33,18.55-18.48,32.26-24.44,13.71-5.96,29.43-8.94,47.18-8.94,8.6,0,17.06.74,25.4,2.22,8.33,1.48,15.59,3.57,21.78,6.25v-9.25c0-11.18-3.5-19.75-10.49-25.73-6.99-5.98-17.61-8.97-31.86-8.97-11.83,0-22.92,2.01-33.27,6.04-10.35,4.04-21.31,9.82-32.87,17.34l-19.35-41.13c13.98-9.13,28.56-15.99,43.75-20.57,15.18-4.56,31.25-6.85,48.19-6.85,31.72,0,56.39,7.45,74,22.33,17.6,14.89,26.41,36.43,26.41,64.62v54.15c0,6.33,1.01,10.74,3.02,13.24,2.01,2.51,5.58,4.02,10.69,4.54v53.63c-5.38,1.07-10.42,1.88-15.12,2.42-4.71.54-8.81.81-12.3.81-12.1,0-21.31-2.42-27.62-7.25-6.33-4.84-10.28-11.43-11.9-19.76l-1.22-9.28c-9.41,12.1-20.63,21.31-33.66,27.63-13.05,6.31-26.68,9.47-40.93,9.47s-26.55-2.91-37.7-8.74c-11.16-5.83-19.96-13.77-26.41-23.84-6.46-10.07-9.68-21.33-9.68-33.78Zm128.23,7.56c2.95-2.33,5.38-4.92,7.25-7.77,1.88-2.84,2.83-5.57,2.83-8.15v-18.27c-5.38-2.07-11.36-3.68-17.95-4.85-6.59-1.17-12.7-1.75-18.35-1.75-11.83,0-21.64,2.53-29.43,7.58-7.8,5.05-11.69,11.72-11.69,20.01,0,4.66,1.34,8.94,4.03,12.82,2.68,3.89,6.38,6.99,11.09,9.32,4.7,2.33,10.28,3.5,16.74,3.5s12.9-1.17,19.35-3.5c6.46-2.32,11.83-5.3,16.13-8.93Z"/>
      <path class="cls-1" d="m1366.18,0h64.52v219.32c0,8.89,1.61,15.22,4.84,18.98,3.22,3.77,7.79,5.66,13.71,5.66,4.03,0,8.12-.6,12.3-1.81,4.17-1.22,7.87-2.63,11.09-4.24l8.47,48.39c-8.07,3.77-17.34,6.73-27.83,8.87-10.49,2.15-20.3,3.22-29.43,3.22-18.29,0-32.46-4.91-42.55-14.74-10.08-9.82-15.12-23.75-15.12-41.79V0Z"/>
      <path class="cls-1" d="m1502.07,58.47V0h64.52v58.47h-64.52Zm0,235.9V82.66h64.52v211.7h-64.52Z"/>
      <path class="cls-1" d="m1692,298.4c-18.01,0-35.62-2.96-52.83-8.87-17.21-5.92-31.72-14.65-43.55-26.22l22.17-40.72c12.91,9.41,25.47,16.53,37.71,21.37,12.23,4.84,23.72,7.25,34.48,7.25,8.33,0,14.78-1.27,19.35-3.81,4.57-2.53,6.86-6.46,6.86-11.79,0-3.97-1.35-7.08-4.03-9.33-2.69-2.25-6.79-4.3-12.31-6.15-5.51-1.86-12.3-3.85-20.36-5.97-16.13-5.29-29.58-10.46-40.33-15.49-10.75-5.02-18.82-11.19-24.19-18.47-5.38-7.28-8.06-16.75-8.06-28.41,0-14.03,3.56-26.28,10.68-36.75,7.12-10.46,17.27-18.6,30.45-24.43,13.17-5.83,28.89-8.74,47.18-8.74,14.52,0,28.69,2.29,42.55,6.85,13.84,4.58,26.81,12.24,38.91,22.99l-25,40.33c-12.1-8.33-22.86-14.38-32.26-18.15-9.41-3.76-18.55-5.64-27.42-5.64-4.58,0-8.74.53-12.5,1.58-3.77,1.06-6.79,2.84-9.07,5.34-2.29,2.51-3.43,5.74-3.43,9.7s1.14,7.12,3.43,9.5c2.28,2.37,5.91,4.42,10.89,6.13,4.97,1.71,11.22,3.76,18.75,6.13,17.47,5.02,32,10.1,43.55,15.24,11.56,5.14,20.23,11.47,26.01,18.99,5.78,7.53,8.67,17.48,8.67,29.88,0,21.11-7.73,37.66-23.19,49.66-15.46,12.01-36.49,18.01-63.11,18.01Z"/>
      <path class="cls-1" d="m1946.85,283.08c-5.92,2.42-12.44,4.84-19.56,7.26-7.12,2.42-14.59,4.36-22.38,5.84-7.8,1.48-15.47,2.22-22.99,2.22-10.75,0-20.63-1.78-29.63-5.36-9.02-3.58-16.13-9.47-21.37-17.68-5.25-8.21-7.87-19.08-7.87-32.59v-108.89h-27.02v-48.79h27.02V17.74h64.52v67.34h43.14v48.79h-43.14v86.33c0,6.84,1.74,11.77,5.24,14.79,3.49,3.02,7.92,4.53,13.31,4.53,4.57,0,9.48-.81,14.72-2.42,5.25-1.61,9.74-3.36,13.51-5.24l12.5,51.21Z"/>
      <path class="cls-1" d="m1958.54,232.04c0-13.77,3.89-25.82,11.69-36.15,7.79-10.33,18.55-18.48,32.26-24.44,13.71-5.96,29.43-8.94,47.18-8.94,8.6,0,17.06.74,25.4,2.22,8.33,1.48,15.59,3.57,21.78,6.25v-9.25c0-11.18-3.5-19.75-10.49-25.73-6.99-5.98-17.61-8.97-31.86-8.97-11.83,0-22.92,2.01-33.27,6.04-10.35,4.04-21.31,9.82-32.87,17.34l-19.35-41.13c13.98-9.13,28.56-15.99,43.75-20.57,15.18-4.56,31.25-6.85,48.19-6.85,31.72,0,56.39,7.45,74,22.33,17.6,14.89,26.41,36.43,26.41,64.62v54.15c0,6.33,1.01,10.74,3.02,13.24,2.01,2.51,5.58,4.02,10.69,4.54v53.63c-5.38,1.07-10.42,1.88-15.12,2.42-4.71.54-8.81.81-12.3.81-12.1,0-21.31-2.42-27.62-7.25-6.33-4.84-10.28-11.43-11.9-19.76l-1.22-9.28c-9.41,12.1-20.63,21.31-33.66,27.63-13.05,6.31-26.68,9.47-40.93,9.47s-26.55-2.91-37.7-8.74c-11.16-5.83-19.96-13.77-26.41-23.84-6.46-10.07-9.68-21.33-9.68-33.78Zm128.23,7.56c2.95-2.33,5.38-4.92,7.25-7.77,1.88-2.84,2.83-5.57,2.83-8.15v-18.27c-5.38-2.07-11.36-3.68-17.95-4.85-6.59-1.17-12.7-1.75-18.35-1.75-11.83,0-21.64,2.53-29.43,7.58-7.8,5.05-11.69,11.72-11.69,20.01,0,4.66,1.34,8.94,4.03,12.82,2.68,3.89,6.38,6.99,11.09,9.32,4.7,2.33,10.28,3.5,16.74,3.5s12.9-1.17,19.35-3.5c6.46-2.32,11.83-5.3,16.13-8.93Z"/>
      <path class="cls-1" d="m2289.2,298.4c-18.01,0-35.62-2.96-52.83-8.87-17.21-5.92-31.72-14.65-43.55-26.22l22.17-40.72c12.91,9.41,25.47,16.53,37.71,21.37,12.23,4.84,23.72,7.25,34.48,7.25,8.33,0,14.78-1.27,19.35-3.81,4.57-2.53,6.86-6.46,6.86-11.79,0-3.97-1.35-7.08-4.03-9.33-2.69-2.25-6.79-4.3-12.31-6.15-5.51-1.86-12.3-3.85-20.36-5.97-16.13-5.29-29.58-10.46-40.33-15.49-10.75-5.02-18.82-11.19-24.19-18.47-5.38-7.28-8.06-16.75-8.06-28.41,0-14.03,3.56-26.28,10.68-36.75,7.12-10.46,17.27-18.6,30.45-24.43,13.17-5.83,28.89-8.74,47.18-8.74,14.52,0,28.69,2.29,42.55,6.85,13.84,4.58,26.81,12.24,38.91,22.99l-25,40.33c-12.1-8.33-22.86-14.38-32.26-18.15-9.41-3.76-18.55-5.64-27.42-5.64-4.58,0-8.74.53-12.5,1.58-3.77,1.06-6.79,2.84-9.07,5.34-2.29,2.51-3.43,5.74-3.43,9.7s1.14,7.12,3.43,9.5c2.28,2.37,5.91,4.42,10.89,6.13,4.97,1.71,11.22,3.76,18.75,6.13,17.47,5.02,32,10.1,43.55,15.24,11.56,5.14,20.23,11.47,26.01,18.99,5.78,7.53,8.67,17.48,8.67,29.88,0,21.11-7.73,37.66-23.19,49.66-15.46,12.01-36.49,18.01-63.11,18.01Z"/>
    </g>
  </g>
</svg>