<?xml version="1.0" encoding="UTF-8"?>
<svg id="Capa_2" data-name="Capa 2" xmlns="http://www.w3.org/2000/svg" viewBox="0 0 532.64 222.31">
  <defs>
    <style>
      .cls-1 {
        fill: #fff;
      }
    </style>
  </defs>
  <g id="Layer_1" data-name="Layer 1">
    <g>
      <g>
        <rect class="cls-1" x="136.5" y="1.16" width="33.03" height="130.61"/>
        <polygon class="cls-1" points="507.96 30.91 469.46 30.91 469.46 131.77 436.44 131.77 436.44 30.91 397.54 30.91 397.54 1.16 507.96 1.16 507.96 30.91"/>
        <path class="cls-1" d="m377.35,31.98c-5.64-10.05-13.48-17.89-23.53-23.53-10.05-5.64-21.34-8.45-33.87-8.45h-22.78v29.74h19.6c10.41,0,18.72,3.3,24.92,9.9,6.2,6.6,9.3,15.34,9.3,26.21s-3.07,18.85-9.2,25.32c-6.13,6.47-14.47,9.7-25.02,9.7h-19.6v29.74h22.78c12.8,0,24.19-2.78,34.17-8.36,9.98-5.57,17.76-13.25,23.33-23.03,5.57-9.78,8.36-20.91,8.36-33.37s-2.82-23.82-8.46-33.87"/>
        <path class="cls-1" d="m269.24,31.98c-5.64-10.05-13.48-17.89-23.53-23.53-10.05-5.64-21.34-8.45-33.87-8.45h-22.78v29.74h19.6c10.41,0,18.72,3.3,24.92,9.9,6.2,6.6,9.3,15.34,9.3,26.21s-3.07,18.85-9.2,25.32c-6.13,6.47-14.47,9.7-25.02,9.7h-19.6v29.74h22.78c12.8,0,24.19-2.78,34.17-8.36,9.98-5.57,17.76-13.25,23.33-23.03,5.57-9.78,8.36-20.91,8.36-33.37s-2.82-23.82-8.46-33.87"/>
        <path class="cls-1" d="m37.39,99.79c5.64,10.05,13.48,17.89,23.53,23.53,10.05,5.64,21.34,8.45,33.87,8.45h22.78v-29.74h-19.6c-10.41,0-18.72-3.3-24.92-9.9-6.2-6.6-9.3-15.33-9.3-26.21s3.07-18.85,9.2-25.32c6.13-6.47,14.47-9.7,25.02-9.7h19.6V1.16h-22.78c-12.8,0-24.19,2.79-34.17,8.36-9.98,5.57-17.76,13.25-23.33,23.03-5.57,9.78-8.36,20.91-8.36,33.37s2.82,23.82,8.46,33.87"/>
      </g>
      <g>
        <path class="cls-1" d="m4.69,191.6c-1.47-.82-2.62-1.97-3.45-3.47-.83-1.5-1.24-3.22-1.24-5.15s.41-3.64,1.22-5.13c.82-1.49,1.96-2.65,3.43-3.46,1.47-.82,3.16-1.22,5.07-1.22,1.57,0,3.01.27,4.32.81,1.3.54,2.38,1.31,3.24,2.32.85,1.01,1.4,2.19,1.64,3.52h-3.84c-.3-1.02-.93-1.85-1.9-2.5-.97-.65-2.13-.97-3.48-.97-1.22,0-2.29.27-3.22.82-.93.55-1.64,1.33-2.14,2.34-.5,1.01-.75,2.18-.75,3.51s.25,2.5.76,3.5c.51,1,1.23,1.77,2.15,2.3.93.53,1.99.79,3.19.79,1.31,0,2.46-.32,3.45-.96.98-.64,1.63-1.48,1.94-2.54h3.84c-.22,1.31-.75,2.48-1.6,3.5-.84,1.02-1.92,1.81-3.22,2.38s-2.76.84-4.38.84c-1.89,0-3.57-.41-5.05-1.22Z"/>
        <path class="cls-1" d="m25.82,176.69v4.72h7.76v3.01h-7.76v4.87h8.64v3.15h-12.09v-18.9h12.09v3.15h-8.64Z"/>
        <path class="cls-1" d="m53.75,173.54v18.9h-3.24l-8.69-12.94v12.94h-3.43v-18.9h3.25l8.69,12.97v-12.97h3.41Z"/>
        <path class="cls-1" d="m71.55,176.66h-5.71v15.78h-3.45v-15.78h-5.77v-3.12h14.94v3.12Z"/>
        <path class="cls-1" d="m74.39,173.54h7.5c2.3,0,4.05.51,5.25,1.53,1.19,1.02,1.79,2.48,1.79,4.37,0,1.31-.3,2.43-.91,3.36-.61.93-1.47,1.59-2.57,2.01l3.6,7.63h-3.86l-3.18-7.04h-4.16v7.04h-3.45v-18.9Zm7.5,8.85c1.12,0,1.97-.27,2.55-.81.58-.54.86-1.25.86-2.11s-.29-1.56-.87-2.09c-.58-.53-1.43-.8-2.54-.8h-4.04v5.82h4.04Z"/>
        <path class="cls-1" d="m110.09,188.08c-.86,1.5-2.06,2.66-3.58,3.5-1.52.83-3.23,1.25-5.12,1.25s-3.59-.41-5.1-1.24c-1.51-.83-2.69-1.99-3.55-3.48-.85-1.5-1.28-3.2-1.28-5.1s.43-3.61,1.28-5.1c.85-1.49,2.04-2.66,3.55-3.49,1.51-.83,3.22-1.25,5.13-1.25s3.59.42,5.1,1.25c1.51.83,2.7,1.99,3.56,3.48.86,1.48,1.3,3.18,1.3,5.09s-.43,3.6-1.3,5.1Zm-3.17-8.52c-.54-1-1.29-1.78-2.25-2.34-.96-.56-2.05-.84-3.25-.84s-2.31.28-3.28.84c-.96.56-1.72,1.34-2.27,2.34-.55,1-.82,2.15-.82,3.45s.27,2.42.82,3.42c.55,1,1.3,1.78,2.27,2.34.96.56,2.06.83,3.28.83s2.28-.28,3.25-.83c.96-.56,1.72-1.34,2.25-2.34.54-1,.81-2.15.81-3.45s-.27-2.43-.81-3.43Z"/>
        <path class="cls-1" d="m134.11,174.75c1.44.81,2.57,1.93,3.38,3.38.81,1.44,1.21,3.08,1.21,4.92s-.4,3.45-1.2,4.87c-.8,1.42-1.92,2.54-3.36,3.33-1.44.8-3.1,1.2-4.96,1.2h-7.02v-18.9h7.02c1.84,0,3.49.4,4.93,1.21Zm-1.97,13.75c.94-.52,1.66-1.25,2.17-2.2.51-.94.76-2.03.76-3.27s-.25-2.36-.76-3.32-1.23-1.7-2.17-2.23c-.94-.53-2.02-.8-3.26-.8h-3.27v12.59h3.27c1.24,0,2.32-.26,3.26-.78Z"/>
        <path class="cls-1" d="m145.63,176.69v4.72h7.76v3.01h-7.76v4.87h8.64v3.15h-12.09v-18.9h12.09v3.15h-8.64Z"/>
        <path class="cls-1" d="m165.5,192.44v-18.9h3.45v18.9h-3.45Z"/>
        <path class="cls-1" d="m188.67,173.54v18.9h-3.24l-8.69-12.94v12.94h-3.43v-18.9h3.25l8.69,12.97v-12.97h3.41Z"/>
        <path class="cls-1" d="m195.13,173.54l2.73,7c.41,1.1.91,2.48,1.49,4.14.58,1.66.99,2.84,1.22,3.55.26-.71.68-1.9,1.26-3.57.58-1.67,1.08-3.05,1.49-4.15l2.71-6.97h3.68l-7.34,18.9h-3.56l-7.44-18.9h3.76Z"/>
        <path class="cls-1" d="m215.86,176.69v4.72h7.76v3.01h-7.76v4.87h8.64v3.15h-12.09v-18.9h12.09v3.15h-8.64Z"/>
        <path class="cls-1" d="m228.66,175.87c.56-.86,1.35-1.53,2.37-2,1.02-.47,2.2-.71,3.53-.71s2.49.23,3.51.69c1.03.46,1.83,1.11,2.4,1.96.58.84.86,1.83.86,2.95h-3.56c-.02-.81-.34-1.46-.96-1.95-.62-.49-1.43-.74-2.44-.74-.92,0-1.66.23-2.21.68-.55.46-.83,1.04-.83,1.76s.24,1.23.73,1.57c.48.34,1.13.6,1.94.79l3.09.76c1.41.34,2.55.95,3.43,1.85.87.9,1.31,2.05,1.31,3.46,0,1.18-.3,2.21-.89,3.1s-1.43,1.57-2.5,2.05c-1.08.48-2.33.73-3.76.73-2.12,0-3.85-.52-5.17-1.55-1.33-1.03-2.05-2.43-2.17-4.21h3.56c.04.88.41,1.58,1.11,2.08.7.5,1.61.76,2.73.76s1.93-.23,2.55-.69c.61-.46.92-1.09.92-1.9,0-.69-.22-1.21-.65-1.57-.43-.35-1-.62-1.7-.79l-3.17-.76c-1.55-.37-2.76-1-3.61-1.88-.85-.88-1.28-2.01-1.28-3.4,0-1.16.28-2.17.84-3.04Z"/>
        <path class="cls-1" d="m258.56,176.66h-5.71v15.78h-3.45v-15.78h-5.77v-3.12h14.94v3.12Z"/>
        <path class="cls-1" d="m261.4,192.44v-18.9h3.45v18.9h-3.45Z"/>
        <path class="cls-1" d="m287.2,182.17v1.8c0,1.75-.4,3.29-1.21,4.63-.81,1.34-1.93,2.38-3.36,3.12-1.43.74-3.07,1.11-4.9,1.11s-3.58-.4-5.02-1.21c-1.44-.81-2.56-1.94-3.35-3.4-.8-1.46-1.2-3.16-1.2-5.09s.41-3.7,1.22-5.2c.82-1.5,1.96-2.67,3.43-3.51,1.47-.83,3.16-1.25,5.07-1.25,1.54,0,2.93.27,4.18.81,1.25.54,2.29,1.29,3.12,2.27.83.97,1.37,2.09,1.63,3.35h-3.69c-.37-1.02-1.04-1.81-1.99-2.38-.95-.57-2.07-.86-3.35-.86-1.87,0-3.35.61-4.43,1.84-1.08,1.23-1.63,2.86-1.63,4.88s.55,3.62,1.65,4.79c1.1,1.17,2.58,1.75,4.44,1.75,1.55,0,2.84-.39,3.86-1.17,1.02-.78,1.63-1.88,1.84-3.3h-5.99v-2.95h9.67Z"/>
        <path class="cls-1" d="m295.86,173.54h3.51l7.01,18.9h-3.66l-1.53-4.3h-7.23l-1.6,4.3h-3.57l7.05-18.9Zm4.33,11.73l-1.21-3.33c-.12-.32-.43-1.25-.95-2.81l-.4-1.18c-.08.26-.26.8-.55,1.63-.29.83-.58,1.61-.88,2.36l-1.24,3.33h5.23Z"/>
        <path class="cls-1" d="m312.71,191.6c-1.47-.82-2.62-1.97-3.45-3.47-.83-1.5-1.24-3.22-1.24-5.15s.41-3.64,1.22-5.13c.82-1.49,1.96-2.65,3.43-3.46,1.47-.82,3.16-1.22,5.07-1.22,1.57,0,3.01.27,4.32.81,1.3.54,2.38,1.31,3.24,2.32.85,1.01,1.4,2.19,1.64,3.52h-3.84c-.3-1.02-.93-1.85-1.9-2.5-.97-.65-2.13-.97-3.48-.97-1.22,0-2.29.27-3.22.82-.93.55-1.64,1.33-2.14,2.34-.5,1.01-.75,2.18-.75,3.51s.25,2.5.76,3.5c.51,1,1.23,1.77,2.15,2.3.93.53,1.99.79,3.19.79,1.31,0,2.46-.32,3.45-.96.98-.64,1.63-1.48,1.94-2.54h3.84c-.22,1.31-.75,2.48-1.6,3.5-.84,1.02-1.92,1.81-3.22,2.38-1.3.56-2.76.84-4.38.84-1.89,0-3.57-.41-5.05-1.22Z"/>
        <path class="cls-1" d="m330.39,192.44v-18.9h3.45v18.9h-3.45Z"/>
        <path class="cls-1" d="m355.77,188.08c-.86,1.5-2.06,2.66-3.58,3.5s-3.23,1.25-5.12,1.25-3.59-.41-5.1-1.24c-1.51-.83-2.69-1.99-3.55-3.48-.85-1.5-1.28-3.2-1.28-5.1s.43-3.61,1.28-5.1c.85-1.49,2.04-2.66,3.55-3.49,1.51-.83,3.22-1.25,5.13-1.25s3.59.42,5.1,1.25c1.51.83,2.7,1.99,3.56,3.48.86,1.48,1.3,3.18,1.3,5.09s-.43,3.6-1.3,5.1Zm-3.17-8.52c-.54-1-1.29-1.78-2.25-2.34-.96-.56-2.05-.84-3.25-.84s-2.31.28-3.28.84c-.96.56-1.72,1.34-2.27,2.34-.55,1-.82,2.15-.82,3.45s.27,2.42.82,3.42c.55,1,1.3,1.78,2.27,2.34.96.56,2.06.83,3.28.83s2.28-.28,3.25-.83c.96-.56,1.72-1.34,2.25-2.34.54-1,.81-2.15.81-3.45s-.27-2.43-.81-3.43Zm-6.48-8.55l4.28-4.62,1.68,1.7-4.98,3.93-.98-1.01Z"/>
        <path class="cls-1" d="m375.89,173.54v18.9h-3.24l-8.69-12.94v12.94h-3.43v-18.9h3.25l8.69,12.97v-12.97h3.41Z"/>
        <path class="cls-1" d="m389.88,173.54l2.25,3.83c.55.96,1.03,1.85,1.45,2.66.42.81.68,1.32.78,1.53.12-.22.38-.7.78-1.45.41-.74.91-1.66,1.52-2.74l2.25-3.83h3.86l-6.69,11.33v7.57h-3.45v-7.57l-6.72-11.33h3.99Z"/>
        <path class="cls-1" d="m424.72,174.75c1.44.81,2.57,1.93,3.38,3.38.81,1.44,1.21,3.08,1.21,4.92s-.4,3.45-1.2,4.87c-.8,1.42-1.92,2.54-3.36,3.33-1.44.8-3.1,1.2-4.96,1.2h-7.02v-18.9h7.02c1.84,0,3.49.4,4.93,1.21Zm-1.97,13.75c.94-.52,1.66-1.25,2.17-2.2.51-.94.76-2.03.76-3.27s-.25-2.36-.76-3.32-1.23-1.7-2.17-2.23c-.94-.53-2.02-.8-3.26-.8h-3.27v12.59h3.27c1.24,0,2.32-.26,3.26-.78Z"/>
        <path class="cls-1" d="m436.24,176.69v4.72h7.76v3.01h-7.76v4.87h8.64v3.15h-12.09v-18.9h12.09v3.15h-8.64Z"/>
        <path class="cls-1" d="m452.27,176.69v5.02h7.25v2.99h-7.25v7.73h-3.45v-18.9h12.09v3.15h-8.64Z"/>
        <path class="cls-1" d="m467.62,176.69v4.72h7.76v3.01h-7.76v4.87h8.64v3.15h-12.09v-18.9h12.09v3.15h-8.64Z"/>
        <path class="cls-1" d="m495.55,173.54v18.9h-3.24l-8.69-12.94v12.94h-3.43v-18.9h3.25l8.69,12.97v-12.97h3.41Z"/>
        <path class="cls-1" d="m500.3,175.87c.56-.86,1.35-1.53,2.37-2,1.02-.47,2.2-.71,3.53-.71s2.49.23,3.51.69c1.03.46,1.83,1.11,2.4,1.96.58.84.86,1.83.86,2.95h-3.56c-.02-.81-.34-1.46-.96-1.95-.62-.49-1.43-.74-2.44-.74-.92,0-1.66.23-2.21.68-.55.46-.83,1.04-.83,1.76s.24,1.23.73,1.57c.48.34,1.13.6,1.94.79l3.09.76c1.41.34,2.55.95,3.43,1.85.87.9,1.31,2.05,1.31,3.46,0,1.18-.3,2.21-.89,3.1s-1.43,1.57-2.5,2.05c-1.08.48-2.33.73-3.76.73-2.12,0-3.85-.52-5.17-1.55-1.33-1.03-2.05-2.43-2.17-4.21h3.56c.04.88.41,1.58,1.11,2.08.7.5,1.61.76,2.73.76s1.93-.23,2.55-.69c.61-.46.92-1.09.92-1.9,0-.69-.22-1.21-.65-1.57-.43-.35-1-.62-1.7-.79l-3.17-.76c-1.55-.37-2.76-1-3.61-1.88-.85-.88-1.28-2.01-1.28-3.4,0-1.16.28-2.17.84-3.04Z"/>
        <path class="cls-1" d="m522.12,173.54h3.51l7.01,18.9h-3.66l-1.53-4.3h-7.23l-1.6,4.3h-3.57l7.05-18.9Zm4.33,11.73l-1.21-3.33c-.12-.32-.43-1.25-.95-2.81l-.4-1.18c-.08.26-.26.8-.55,1.63-.29.83-.58,1.61-.88,2.36l-1.24,3.33h5.23Z"/>
        <path class="cls-1" d="m97.63,204.23c1.44.81,2.57,1.93,3.38,3.38.81,1.44,1.21,3.08,1.21,4.92s-.4,3.45-1.2,4.87c-.8,1.43-1.92,2.54-3.36,3.33-1.44.8-3.1,1.2-4.96,1.2h-7.02v-18.9h7.02c1.84,0,3.49.4,4.93,1.21Zm-1.97,13.75c.94-.52,1.66-1.25,2.17-2.2.51-.94.76-2.03.76-3.27s-.25-2.36-.76-3.32c-.51-.95-1.23-1.7-2.17-2.23-.94-.53-2.02-.8-3.26-.8h-3.27v12.59h3.27c1.24,0,2.32-.26,3.26-.78Z"/>
        <path class="cls-1" d="m109.15,206.17v4.72h7.76v3.01h-7.76v4.87h8.64v3.15h-12.09v-18.9h12.09v3.15h-8.64Z"/>
        <path class="cls-1" d="m133.02,218.79v3.12h-11.3v-18.9h3.48v15.78h7.82Z"/>
        <path class="cls-1" d="m155.35,204.23c1.44.81,2.57,1.93,3.38,3.38.81,1.44,1.21,3.08,1.21,4.92s-.4,3.45-1.2,4.87c-.8,1.43-1.92,2.54-3.36,3.33-1.44.8-3.1,1.2-4.96,1.2h-7.02v-18.9h7.02c1.84,0,3.49.4,4.93,1.21Zm-1.97,13.75c.94-.52,1.66-1.25,2.17-2.2.51-.94.76-2.03.76-3.27s-.25-2.36-.76-3.32c-.51-.95-1.23-1.7-2.17-2.23-.94-.53-2.02-.8-3.26-.8h-3.27v12.59h3.27c1.24,0,2.32-.26,3.26-.78Z"/>
        <path class="cls-1" d="m166.87,206.17v4.72h7.76v3.01h-7.76v4.87h8.64v3.15h-12.09v-18.9h12.09v3.15h-8.64Z"/>
        <path class="cls-1" d="m179.44,203.02h7.5c2.3,0,4.05.51,5.25,1.53,1.19,1.02,1.79,2.48,1.79,4.37,0,1.31-.3,2.44-.91,3.36s-1.47,1.6-2.57,2.01l3.6,7.63h-3.86l-3.18-7.04h-4.16v7.04h-3.45v-18.9Zm7.5,8.85c1.12,0,1.97-.27,2.55-.81s.86-1.25.86-2.11-.29-1.56-.87-2.09c-.58-.53-1.43-.8-2.54-.8h-4.04v5.82h4.04Z"/>
        <path class="cls-1" d="m201.03,206.17v4.72h7.76v3.01h-7.76v4.87h8.64v3.15h-12.09v-18.9h12.09v3.15h-8.64Z"/>
        <path class="cls-1" d="m217.23,221.08c-1.47-.82-2.62-1.97-3.45-3.47-.83-1.5-1.24-3.22-1.24-5.15s.41-3.64,1.22-5.13c.82-1.49,1.96-2.65,3.43-3.46s3.16-1.22,5.07-1.22c1.57,0,3.01.27,4.32.81,1.3.54,2.38,1.31,3.24,2.32.85,1.01,1.4,2.19,1.64,3.52h-3.84c-.3-1.02-.93-1.85-1.9-2.5-.97-.65-2.13-.97-3.48-.97-1.22,0-2.29.27-3.22.82-.93.55-1.64,1.33-2.14,2.34-.5,1.01-.75,2.18-.75,3.5s.25,2.5.76,3.51c.51,1,1.23,1.77,2.15,2.3.93.53,1.99.79,3.19.79,1.31,0,2.46-.32,3.45-.96.98-.64,1.63-1.49,1.94-2.54h3.84c-.22,1.31-.75,2.48-1.6,3.5-.84,1.02-1.92,1.81-3.22,2.37-1.3.56-2.76.84-4.38.84-1.89,0-3.57-.41-5.05-1.22Z"/>
        <path class="cls-1" d="m234.91,203.02h3.45v7.85l8.38.03v-7.87h3.47v18.9h-3.47v-8.05h-8.38v8.05h-3.45v-18.9Z"/>
        <path class="cls-1" d="m272.14,217.55c-.86,1.5-2.06,2.66-3.58,3.5s-3.23,1.25-5.12,1.25-3.59-.41-5.1-1.24c-1.51-.83-2.69-1.99-3.55-3.48-.85-1.5-1.28-3.2-1.28-5.1s.43-3.61,1.28-5.1c.85-1.49,2.04-2.66,3.55-3.49,1.51-.83,3.22-1.25,5.13-1.25s3.59.42,5.1,1.25c1.51.83,2.7,1.99,3.56,3.48.86,1.48,1.3,3.18,1.3,5.09s-.43,3.6-1.3,5.1Zm-3.17-8.52c-.54-1-1.29-1.78-2.25-2.34-.96-.56-2.05-.84-3.25-.84s-2.31.28-3.28.84c-.96.56-1.72,1.34-2.27,2.34-.55,1-.82,2.15-.82,3.45s.27,2.42.82,3.42c.55,1,1.3,1.78,2.27,2.34.96.56,2.06.83,3.28.83s2.28-.28,3.25-.83c.96-.56,1.72-1.34,2.25-2.34.54-1,.81-2.15.81-3.45s-.27-2.43-.81-3.43Z"/>
        <path class="cls-1" d="m289.4,203.02h3.51l7.01,18.9h-3.66l-1.53-4.3h-7.23l-1.6,4.3h-3.57l7.05-18.9Zm4.33,11.73l-1.21-3.33c-.12-.32-.43-1.25-.95-2.81l-.4-1.18c-.08.26-.26.8-.55,1.63-.29.83-.58,1.61-.88,2.36l-1.24,3.33h5.23Z"/>
        <path class="cls-1" d="m313.92,218.79v3.12h-11.3v-18.9h3.48v15.78h7.82Z"/>
        <path class="cls-1" d="m337.57,206.14h-5.71v15.78h-3.45v-15.78h-5.77v-3.12h14.94v3.12Z"/>
        <path class="cls-1" d="m340.41,203.02h7.5c2.3,0,4.05.51,5.25,1.53,1.19,1.02,1.79,2.48,1.79,4.37,0,1.31-.3,2.44-.91,3.36-.61.93-1.47,1.6-2.57,2.01l3.6,7.63h-3.86l-3.18-7.04h-4.16v7.04h-3.45v-18.9Zm7.5,8.85c1.12,0,1.97-.27,2.55-.81s.86-1.25.86-2.11-.29-1.56-.87-2.09c-.58-.53-1.43-.8-2.54-.8h-4.04v5.82h4.04Z"/>
        <path class="cls-1" d="m363.74,203.02h3.51l7.01,18.9h-3.66l-1.53-4.3h-7.23l-1.6,4.3h-3.57l7.05-18.9Zm4.33,11.73l-1.21-3.33c-.12-.32-.43-1.25-.95-2.81l-.4-1.18c-.08.26-.26.8-.55,1.63-.29.83-.58,1.61-.88,2.36l-1.24,3.33h5.23Z"/>
        <path class="cls-1" d="m390.28,214.18c.58.75.87,1.68.87,2.79,0,1.57-.58,2.79-1.74,3.66-1.16.86-2.73,1.3-4.69,1.3h-7.76v-18.9h7.7c1.97,0,3.51.47,4.63,1.42,1.12.95,1.68,2.19,1.68,3.72,0,1.08-.27,1.99-.82,2.73-.55.73-1.3,1.27-2.25,1.6,1.01.37,1.8.94,2.38,1.69Zm-9.95-8.24v5.28h4.22c.96,0,1.7-.25,2.22-.76s.78-1.12.78-1.85-.26-1.36-.78-1.89c-.52-.53-1.26-.79-2.22-.79h-4.22Zm6.64,12.35c.54-.45.81-1.07.81-1.86s-.29-1.45-.86-1.93-1.29-.72-2.15-.72h-4.45v5.18h4.45c.92,0,1.65-.23,2.2-.68Z"/>
        <path class="cls-1" d="m399.81,203.02h3.51l7.01,18.9h-3.66l-1.53-4.3h-7.23l-1.6,4.3h-3.57l7.05-18.9Zm4.33,11.73l-1.21-3.33c-.12-.32-.43-1.25-.95-2.81l-.4-1.18c-.08.26-.26.8-.55,1.63-.29.83-.58,1.61-.88,2.36l-1.24,3.33h5.23Z"/>
        <path class="cls-1" d="m423.97,216.46c0,1.78-.57,3.21-1.72,4.26s-2.66,1.58-4.53,1.58c-1.87-.02-3.36-.56-4.45-1.63-1.1-1.06-1.65-2.47-1.65-4.22v-.94h3.34v.82c0,.92.25,1.62.75,2.11.5.49,1.17.73,2.02.73.9,0,1.6-.25,2.08-.76s.73-1.2.73-2.08v-10.21h-5.93v-3.12h9.37v13.44Z"/>
        <path class="cls-1" d="m445.96,217.55c-.86,1.5-2.06,2.66-3.58,3.5s-3.23,1.25-5.12,1.25-3.59-.41-5.1-1.24c-1.51-.83-2.69-1.99-3.55-3.48-.85-1.5-1.28-3.2-1.28-5.1s.43-3.61,1.28-5.1c.85-1.49,2.04-2.66,3.55-3.49,1.51-.83,3.22-1.25,5.13-1.25s3.59.42,5.1,1.25c1.51.83,2.7,1.99,3.56,3.48.86,1.48,1.3,3.18,1.3,5.09s-.43,3.6-1.3,5.1Zm-3.17-8.52c-.54-1-1.29-1.78-2.25-2.34-.96-.56-2.05-.84-3.25-.84s-2.31.28-3.28.84c-.96.56-1.72,1.34-2.27,2.34-.55,1-.82,2.15-.82,3.45s.27,2.42.82,3.42c.55,1,1.3,1.78,2.27,2.34.96.56,2.06.83,3.28.83s2.28-.28,3.25-.83c.96-.56,1.72-1.34,2.25-2.34.54-1,.81-2.15.81-3.45s-.27-2.43-.81-3.43Z"/>
      </g>
    </g>
  </g>
</svg>