<?xml version="1.0" encoding="UTF-8"?>
<svg id="Capa_2" data-name="Capa 2" xmlns="http://www.w3.org/2000/svg" viewBox="0 0 565.86 155.66">
  <defs>
    <style>
      .cls-1 {
        fill: #fff;
      }
    </style>
  </defs>
  <g id="Layer_1" data-name="Layer 1">
    <g>
      <rect class="cls-1" x="127.07" y="1.38" width="39.01" height="154.29"/>
      <polygon class="cls-1" points="565.86 36.51 520.39 36.51 520.39 155.66 481.38 155.66 481.38 36.51 435.43 36.51 435.43 1.37 565.86 1.37 565.86 36.51"/>
      <path class="cls-1" d="m411.59,37.78c-6.66-11.87-15.92-21.13-27.79-27.79-11.87-6.66-25.21-9.99-40.01-9.99h-26.91v35.13h23.15c12.3,0,22.11,3.9,29.43,11.69,7.32,7.79,10.99,18.12,10.99,30.96s-3.62,22.27-10.87,29.91c-7.24,7.64-17.1,11.46-29.55,11.46h-23.15v35.13h26.91c15.12,0,28.57-3.29,40.36-9.87,11.79-6.58,20.98-15.65,27.55-27.2,6.58-11.55,9.87-24.7,9.87-39.42s-3.33-28.14-9.99-40.01"/>
      <path class="cls-1" d="m283.88,37.78c-6.66-11.87-15.92-21.13-27.79-27.79-11.87-6.66-25.21-9.99-40.01-9.99h-26.91v35.13h23.15c12.3,0,22.11,3.9,29.43,11.69,7.32,7.79,10.99,18.12,10.99,30.96s-3.62,22.27-10.87,29.91c-7.24,7.64-17.1,11.46-29.55,11.46h-23.15v35.13h26.91c15.12,0,28.57-3.29,40.36-9.87,11.79-6.58,20.98-15.65,27.55-27.2,6.58-11.55,9.87-24.7,9.87-39.42s-3.33-28.14-9.99-40.01"/>
      <path class="cls-1" d="m9.99,117.88c6.66,11.87,15.92,21.13,27.79,27.79,11.87,6.66,25.21,9.99,40.01,9.99h26.91v-35.13h-23.15c-12.3,0-22.11-3.9-29.43-11.69-7.32-7.79-10.99-18.11-10.99-30.96s3.62-22.27,10.87-29.9c7.24-7.64,17.1-11.46,29.55-11.46h23.15V1.37h-26.91c-15.12,0-28.57,3.29-40.36,9.87-11.79,6.58-20.98,15.65-27.55,27.2C3.29,50,0,63.14,0,77.87s3.33,28.14,9.99,40.01"/>
    </g>
  </g>
</svg>