<?xml version="1.0" encoding="UTF-8"?>
<svg id="Capa_2" data-name="Capa 2" xmlns="http://www.w3.org/2000/svg" viewBox="0 0 479.03 219.1">
  <defs>
    <style>
      .cls-1 {
        fill: #fff;
      }
    </style>
  </defs>
  <g id="Layer_1" data-name="Layer 1">
    <g>
      <g>
        <rect class="cls-1" x="107.57" y="1.16" width="33.03" height="130.61"/>
        <polygon class="cls-1" points="479.03 30.91 440.53 30.91 440.53 131.77 407.5 131.77 407.5 30.91 368.61 30.91 368.61 1.16 479.03 1.16 479.03 30.91"/>
        <path class="cls-1" d="m348.42,31.98c-5.64-10.05-13.48-17.89-23.53-23.53-10.05-5.64-21.34-8.45-33.87-8.45h-22.78v29.74h19.6c10.41,0,18.72,3.3,24.92,9.9,6.2,6.6,9.3,15.34,9.3,26.21s-3.07,18.85-9.2,25.32c-6.13,6.47-14.47,9.7-25.02,9.7h-19.6v29.74h22.78c12.8,0,24.19-2.78,34.17-8.36,9.98-5.57,17.76-13.25,23.33-23.03,5.57-9.78,8.36-20.91,8.36-33.37s-2.82-23.82-8.46-33.87"/>
        <path class="cls-1" d="m240.31,31.98c-5.64-10.05-13.48-17.89-23.53-23.53-10.05-5.64-21.34-8.45-33.87-8.45h-22.78v29.74h19.6c10.41,0,18.72,3.3,24.92,9.9,6.2,6.6,9.3,15.34,9.3,26.21s-3.07,18.85-9.2,25.32c-6.13,6.47-14.47,9.7-25.02,9.7h-19.6v29.74h22.78c12.8,0,24.19-2.78,34.17-8.36,9.98-5.57,17.76-13.25,23.33-23.03,5.57-9.78,8.36-20.91,8.36-33.37s-2.82-23.82-8.46-33.87"/>
        <path class="cls-1" d="m8.46,99.79c5.64,10.05,13.48,17.89,23.53,23.53,10.05,5.64,21.34,8.45,33.87,8.45h22.78v-29.74h-19.6c-10.41,0-18.72-3.3-24.92-9.9-6.2-6.6-9.3-15.33-9.3-26.21s3.07-18.85,9.2-25.32c6.13-6.47,14.47-9.7,25.02-9.7h19.6V1.16h-22.78c-12.8,0-24.19,2.79-34.17,8.36-9.98,5.57-17.76,13.25-23.33,23.03C2.79,42.33,0,53.45,0,65.92s2.82,23.82,8.46,33.87"/>
      </g>
      <g>
        <path class="cls-1" d="m5.78,191.92c-1.3-.72-2.32-1.75-3.05-3.07-.73-1.33-1.1-2.85-1.1-4.56s.36-3.22,1.08-4.54c.72-1.32,1.73-2.34,3.04-3.06,1.3-.72,2.8-1.08,4.49-1.08,1.39,0,2.67.24,3.82.71,1.16.48,2.11,1.16,2.87,2.06.76.9,1.24,1.94,1.45,3.12h-3.4c-.26-.9-.82-1.64-1.68-2.21-.86-.57-1.89-.86-3.08-.86-1.08,0-2.03.24-2.85.73-.82.49-1.45,1.17-1.89,2.07-.44.9-.66,1.93-.66,3.1s.23,2.21.68,3.1c.45.89,1.09,1.57,1.9,2.03.82.47,1.76.7,2.82.7,1.16,0,2.18-.28,3.05-.85.87-.56,1.44-1.31,1.71-2.25h3.4c-.2,1.16-.67,2.2-1.41,3.1-.75.9-1.7,1.61-2.85,2.1s-2.45.75-3.87.75c-1.67,0-3.16-.36-4.47-1.08Z"/>
        <path class="cls-1" d="m24.49,178.72v4.18h6.87v2.66h-6.87v4.31h7.65v2.79h-10.7v-16.73h10.7v2.79h-7.65Z"/>
        <path class="cls-1" d="m49.22,175.92v16.73h-2.87l-7.7-11.46v11.46h-3.03v-16.73h2.88l7.7,11.48v-11.48h3.02Z"/>
        <path class="cls-1" d="m64.97,178.69h-5.06v13.97h-3.06v-13.97h-5.11v-2.76h13.23v2.76Z"/>
        <path class="cls-1" d="m67.49,175.92h6.64c2.04,0,3.59.45,4.64,1.36,1.06.9,1.59,2.19,1.59,3.87,0,1.16-.27,2.15-.81,2.98-.54.82-1.3,1.41-2.27,1.78l3.19,6.75h-3.42l-2.82-6.23h-3.68v6.23h-3.06v-16.73Zm6.64,7.84c.99,0,1.75-.24,2.26-.72.51-.48.76-1.1.76-1.87s-.26-1.38-.77-1.85c-.51-.47-1.26-.71-2.25-.71h-3.58v5.15h3.58Z"/>
        <path class="cls-1" d="m99.09,188.79c-.76,1.32-1.82,2.36-3.17,3.1s-2.86,1.11-4.53,1.11-3.18-.37-4.52-1.1c-1.34-.73-2.38-1.76-3.14-3.08-.76-1.33-1.13-2.83-1.13-4.51s.38-3.2,1.13-4.52c.76-1.32,1.8-2.35,3.14-3.09,1.34-.74,2.85-1.11,4.54-1.11s3.18.37,4.52,1.11c1.34.74,2.39,1.77,3.15,3.08.76,1.31,1.15,2.81,1.15,4.5s-.38,3.19-1.15,4.51Zm-2.8-7.54c-.48-.88-1.14-1.57-1.99-2.07-.85-.5-1.81-.75-2.87-.75s-2.05.25-2.9.75c-.85.5-1.52,1.19-2.01,2.07-.48.88-.73,1.9-.73,3.06s.24,2.14.73,3.03c.48.89,1.15,1.58,2.01,2.07.85.49,1.82.74,2.9.74s2.02-.25,2.87-.74c.85-.49,1.52-1.18,1.99-2.07.48-.89.71-1.91.71-3.05s-.24-2.15-.71-3.03Z"/>
        <path class="cls-1" d="m120.35,176.99c1.28.71,2.27,1.71,2.99,2.99.71,1.28,1.07,2.73,1.07,4.35s-.35,3.05-1.06,4.31c-.71,1.26-1.7,2.24-2.98,2.95-1.28.71-2.74,1.06-4.39,1.06h-6.22v-16.73h6.22c1.63,0,3.09.36,4.36,1.07Zm-1.75,12.18c.83-.46,1.47-1.11,1.92-1.94.45-.83.68-1.8.68-2.89s-.23-2.09-.68-2.94-1.09-1.5-1.92-1.97c-.83-.47-1.79-.71-2.89-.71h-2.89v11.15h2.89c1.1,0,2.06-.23,2.89-.69Z"/>
        <path class="cls-1" d="m130.55,178.72v4.18h6.87v2.66h-6.87v4.31h7.65v2.79h-10.7v-16.73h10.7v2.79h-7.65Z"/>
        <path class="cls-1" d="m148.15,192.66v-16.73h3.06v16.73h-3.06Z"/>
        <path class="cls-1" d="m168.65,175.92v16.73h-2.87l-7.7-11.46v11.46h-3.03v-16.73h2.88l7.7,11.48v-11.48h3.02Z"/>
        <path class="cls-1" d="m174.37,175.92l2.42,6.19c.37.98.8,2.2,1.32,3.66.51,1.47.87,2.51,1.08,3.14.23-.63.6-1.68,1.11-3.16.51-1.48.95-2.7,1.32-3.67l2.4-6.17h3.26l-6.5,16.73h-3.15l-6.59-16.73h3.33Z"/>
        <path class="cls-1" d="m192.72,178.72v4.18h6.87v2.66h-6.87v4.31h7.65v2.79h-10.7v-16.73h10.7v2.79h-7.65Z"/>
        <path class="cls-1" d="m204.05,177.99c.5-.76,1.2-1.35,2.1-1.77.9-.42,1.95-.62,3.13-.62s2.2.2,3.11.61c.91.41,1.62.99,2.13,1.73.51.75.76,1.62.76,2.61h-3.15c-.02-.71-.3-1.29-.85-1.73-.55-.44-1.27-.66-2.16-.66-.82,0-1.47.2-1.96.61s-.73.92-.73,1.56.21,1.09.64,1.39c.43.3,1,.53,1.71.7l2.74.68c1.25.3,2.26.84,3.03,1.64.77.79,1.16,1.82,1.16,3.06,0,1.05-.26,1.96-.78,2.74s-1.26,1.39-2.22,1.82c-.96.43-2.07.64-3.33.64-1.88,0-3.4-.46-4.58-1.37-1.18-.91-1.82-2.15-1.92-3.73h3.15c.03.78.36,1.39.98,1.84.62.45,1.43.67,2.42.67s1.71-.2,2.26-.61c.54-.41.82-.97.82-1.68,0-.61-.19-1.07-.57-1.39-.38-.31-.88-.55-1.5-.7l-2.8-.68c-1.38-.33-2.44-.89-3.2-1.66-.76-.78-1.13-1.78-1.13-3.01,0-1.03.25-1.92.75-2.69Z"/>
        <path class="cls-1" d="m230.52,178.69h-5.06v13.97h-3.06v-13.97h-5.11v-2.76h13.23v2.76Z"/>
        <path class="cls-1" d="m233.03,192.66v-16.73h3.06v16.73h-3.06Z"/>
        <path class="cls-1" d="m255.87,183.57v1.59c0,1.55-.36,2.91-1.07,4.1-.71,1.18-1.71,2.1-2.98,2.76-1.27.65-2.72.98-4.34.98s-3.17-.36-4.45-1.07c-1.27-.71-2.26-1.72-2.97-3.01-.71-1.3-1.06-2.8-1.06-4.5s.36-3.28,1.08-4.61c.72-1.33,1.73-2.36,3.04-3.1,1.3-.74,2.8-1.11,4.49-1.11,1.36,0,2.59.24,3.7.71,1.11.48,2.03,1.15,2.76,2.01.73.86,1.21,1.85,1.44,2.96h-3.26c-.33-.9-.92-1.6-1.76-2.11-.84-.51-1.83-.76-2.97-.76-1.66,0-2.96.54-3.92,1.63-.96,1.09-1.44,2.53-1.44,4.32s.49,3.2,1.46,4.24c.97,1.03,2.28,1.55,3.93,1.55,1.38,0,2.52-.35,3.42-1.04.9-.69,1.45-1.67,1.62-2.92h-5.3v-2.61h8.56Z"/>
        <path class="cls-1" d="m263.54,175.92h3.11l6.21,16.73h-3.24l-1.35-3.81h-6.4l-1.41,3.81h-3.16l6.24-16.73Zm3.84,10.38l-1.07-2.94c-.1-.28-.38-1.11-.84-2.48l-.36-1.04c-.07.23-.23.71-.48,1.44-.25.73-.51,1.43-.78,2.09l-1.1,2.94h4.63Z"/>
        <path class="cls-1" d="m278.46,191.92c-1.3-.72-2.32-1.75-3.05-3.07-.73-1.33-1.1-2.85-1.1-4.56s.36-3.22,1.08-4.54c.72-1.32,1.73-2.34,3.04-3.06,1.3-.72,2.8-1.08,4.49-1.08,1.39,0,2.67.24,3.82.71,1.16.48,2.11,1.16,2.87,2.06.76.9,1.24,1.94,1.45,3.12h-3.4c-.26-.9-.82-1.64-1.68-2.21-.86-.57-1.89-.86-3.08-.86-1.08,0-2.03.24-2.85.73-.82.49-1.45,1.17-1.89,2.07-.44.9-.66,1.93-.66,3.1s.23,2.21.68,3.1c.45.89,1.09,1.57,1.9,2.03.82.47,1.76.7,2.82.7,1.16,0,2.18-.28,3.05-.85.87-.56,1.44-1.31,1.71-2.25h3.4c-.2,1.16-.67,2.2-1.41,3.1-.75.9-1.7,1.61-2.85,2.1-1.16.5-2.45.75-3.87.75-1.67,0-3.16-.36-4.47-1.08Z"/>
        <path class="cls-1" d="m294.11,192.66v-16.73h3.06v16.73h-3.06Z"/>
        <path class="cls-1" d="m316.58,188.79c-.76,1.32-1.82,2.36-3.17,3.1s-2.86,1.11-4.53,1.11-3.18-.37-4.52-1.1c-1.34-.73-2.38-1.76-3.14-3.08-.76-1.33-1.13-2.83-1.13-4.51s.38-3.2,1.13-4.52c.76-1.32,1.8-2.35,3.14-3.09,1.34-.74,2.85-1.11,4.54-1.11s3.18.37,4.52,1.11c1.34.74,2.39,1.77,3.15,3.08.76,1.31,1.15,2.81,1.15,4.5s-.38,3.19-1.15,4.51Zm-2.8-7.54c-.48-.88-1.14-1.57-1.99-2.07-.85-.5-1.81-.75-2.87-.75s-2.05.25-2.9.75c-.85.5-1.52,1.19-2.01,2.07-.48.88-.73,1.9-.73,3.06s.24,2.14.73,3.03c.48.89,1.15,1.58,2.01,2.07.85.49,1.82.74,2.9.74s2.02-.25,2.87-.74c.85-.49,1.52-1.18,1.99-2.07.48-.89.71-1.91.71-3.05s-.24-2.15-.71-3.03Zm-5.73-7.57l3.78-4.09,1.49,1.5-4.41,3.48-.87-.89Z"/>
        <path class="cls-1" d="m334.38,175.92v16.73h-2.87l-7.7-11.46v11.46h-3.03v-16.73h2.88l7.7,11.48v-11.48h3.02Z"/>
        <path class="cls-1" d="m346.77,175.92l1.99,3.39c.48.85.91,1.63,1.29,2.35.37.72.6,1.17.69,1.36.1-.2.33-.62.69-1.28.36-.66.81-1.47,1.34-2.43l1.99-3.39h3.42l-5.93,10.03v6.7h-3.06v-6.7l-5.95-10.03h3.53Z"/>
        <path class="cls-1" d="m377.61,176.99c1.28.71,2.27,1.71,2.99,2.99.71,1.28,1.07,2.73,1.07,4.35s-.35,3.05-1.06,4.31c-.71,1.26-1.7,2.24-2.98,2.95-1.28.71-2.74,1.06-4.39,1.06h-6.22v-16.73h6.22c1.63,0,3.09.36,4.36,1.07Zm-1.75,12.18c.83-.46,1.47-1.11,1.92-1.94.45-.83.68-1.8.68-2.89s-.23-2.09-.68-2.94-1.09-1.5-1.92-1.97c-.83-.47-1.79-.71-2.89-.71h-2.89v11.15h2.89c1.1,0,2.06-.23,2.89-.69Z"/>
        <path class="cls-1" d="m387.81,178.72v4.18h6.87v2.66h-6.87v4.31h7.65v2.79h-10.7v-16.73h10.7v2.79h-7.65Z"/>
        <path class="cls-1" d="m401.99,178.72v4.45h6.42v2.65h-6.42v6.84h-3.06v-16.73h10.7v2.79h-7.65Z"/>
        <path class="cls-1" d="m415.58,178.72v4.18h6.87v2.66h-6.87v4.31h7.65v2.79h-10.7v-16.73h10.7v2.79h-7.65Z"/>
        <path class="cls-1" d="m440.31,175.92v16.73h-2.87l-7.7-11.46v11.46h-3.03v-16.73h2.88l7.7,11.48v-11.48h3.02Z"/>
        <path class="cls-1" d="m444.52,177.99c.5-.76,1.2-1.35,2.1-1.77.9-.42,1.95-.62,3.13-.62s2.2.2,3.11.61c.91.41,1.62.99,2.13,1.73.51.75.76,1.62.76,2.61h-3.15c-.02-.71-.3-1.29-.85-1.73-.55-.44-1.27-.66-2.16-.66-.82,0-1.47.2-1.96.61-.49.4-.73.92-.73,1.56s.21,1.09.64,1.39c.43.3,1,.53,1.71.7l2.74.68c1.25.3,2.26.84,3.03,1.64.77.79,1.16,1.82,1.16,3.06,0,1.05-.26,1.96-.78,2.74s-1.26,1.39-2.22,1.82c-.96.43-2.07.64-3.33.64-1.88,0-3.4-.46-4.58-1.37-1.18-.91-1.82-2.15-1.92-3.73h3.15c.03.78.36,1.39.98,1.84.62.45,1.43.67,2.42.67s1.71-.2,2.26-.61c.54-.41.82-.97.82-1.68,0-.61-.19-1.07-.57-1.39-.38-.31-.88-.55-1.5-.7l-2.8-.68c-1.38-.33-2.44-.89-3.2-1.66-.76-.78-1.13-1.78-1.13-3.01,0-1.03.25-1.92.75-2.69Z"/>
        <path class="cls-1" d="m463.83,175.92h3.11l6.21,16.73h-3.24l-1.35-3.81h-6.4l-1.41,3.81h-3.16l6.24-16.73Zm3.84,10.38l-1.07-2.94c-.1-.28-.38-1.11-.84-2.48l-.36-1.04c-.07.23-.23.71-.48,1.44-.25.73-.51,1.43-.78,2.09l-1.1,2.94h4.63Z"/>
        <path class="cls-1" d="m88.06,203.09c1.28.71,2.27,1.71,2.99,2.99.71,1.28,1.07,2.73,1.07,4.35s-.35,3.05-1.06,4.31c-.71,1.26-1.7,2.24-2.98,2.95-1.28.71-2.74,1.06-4.39,1.06h-6.22v-16.73h6.22c1.63,0,3.09.36,4.36,1.07Zm-1.75,12.18c.83-.46,1.47-1.11,1.92-1.94.45-.83.68-1.8.68-2.89s-.23-2.09-.68-2.94c-.45-.85-1.09-1.5-1.92-1.97-.83-.47-1.79-.71-2.89-.71h-2.89v11.15h2.89c1.1,0,2.06-.23,2.89-.69Z"/>
        <path class="cls-1" d="m98.26,204.81v4.18h6.87v2.66h-6.87v4.31h7.65v2.79h-10.7v-16.73h10.7v2.79h-7.65Z"/>
        <path class="cls-1" d="m119.39,215.99v2.77h-10v-16.73h3.08v13.97h6.92Z"/>
        <path class="cls-1" d="m139.16,203.09c1.28.71,2.27,1.71,2.99,2.99.71,1.28,1.07,2.73,1.07,4.35s-.35,3.05-1.06,4.31c-.71,1.26-1.7,2.24-2.98,2.95-1.28.71-2.74,1.06-4.39,1.06h-6.22v-16.73h6.22c1.63,0,3.09.36,4.36,1.07Zm-1.75,12.18c.83-.46,1.47-1.11,1.92-1.94.45-.83.68-1.8.68-2.89s-.23-2.09-.68-2.94c-.45-.85-1.09-1.5-1.92-1.97-.83-.47-1.79-.71-2.89-.71h-2.89v11.15h2.89c1.1,0,2.06-.23,2.89-.69Z"/>
        <path class="cls-1" d="m149.35,204.81v4.18h6.87v2.66h-6.87v4.31h7.65v2.79h-10.7v-16.73h10.7v2.79h-7.65Z"/>
        <path class="cls-1" d="m160.48,202.02h6.64c2.04,0,3.59.45,4.64,1.36,1.06.9,1.59,2.19,1.59,3.87,0,1.16-.27,2.16-.81,2.98-.54.82-1.3,1.41-2.27,1.78l3.19,6.75h-3.42l-2.82-6.23h-3.68v6.23h-3.06v-16.73Zm6.64,7.84c.99,0,1.75-.24,2.26-.72s.76-1.1.76-1.87-.26-1.38-.77-1.85c-.51-.47-1.26-.71-2.25-.71h-3.58v5.15h3.58Z"/>
        <path class="cls-1" d="m179.59,204.81v4.18h6.87v2.66h-6.87v4.31h7.65v2.79h-10.7v-16.73h10.7v2.79h-7.65Z"/>
        <path class="cls-1" d="m193.94,218.01c-1.3-.72-2.32-1.75-3.05-3.07-.73-1.33-1.1-2.85-1.1-4.56s.36-3.22,1.08-4.54c.72-1.32,1.73-2.34,3.04-3.06s2.8-1.08,4.49-1.08c1.39,0,2.67.24,3.82.71,1.16.48,2.11,1.16,2.87,2.06.76.9,1.24,1.93,1.45,3.12h-3.4c-.26-.9-.82-1.64-1.68-2.21-.86-.57-1.89-.86-3.08-.86-1.08,0-2.03.24-2.85.73-.82.48-1.45,1.17-1.89,2.07-.44.9-.66,1.93-.66,3.1s.23,2.22.68,3.1c.45.89,1.09,1.57,1.9,2.03s1.76.7,2.82.7c1.16,0,2.18-.28,3.05-.85.87-.56,1.44-1.31,1.71-2.25h3.4c-.2,1.16-.67,2.2-1.41,3.1-.75.9-1.7,1.61-2.85,2.1-1.16.5-2.45.75-3.87.75-1.67,0-3.16-.36-4.47-1.08Z"/>
        <path class="cls-1" d="m209.59,202.02h3.06v6.94l7.42.03v-6.97h3.07v16.73h-3.07v-7.12h-7.42v7.12h-3.06v-16.73Z"/>
        <path class="cls-1" d="m242.54,214.89c-.76,1.33-1.82,2.36-3.17,3.1s-2.86,1.11-4.53,1.11-3.18-.37-4.52-1.1c-1.34-.73-2.38-1.76-3.14-3.08-.76-1.33-1.13-2.83-1.13-4.51s.38-3.2,1.13-4.52c.76-1.32,1.8-2.35,3.14-3.09,1.34-.74,2.85-1.11,4.54-1.11s3.18.37,4.52,1.11c1.34.74,2.39,1.77,3.15,3.08.76,1.31,1.15,2.81,1.15,4.5s-.38,3.19-1.15,4.51Zm-2.8-7.54c-.48-.88-1.14-1.57-1.99-2.07-.85-.5-1.81-.74-2.87-.74s-2.05.25-2.9.74c-.85.5-1.52,1.19-2.01,2.07-.48.88-.73,1.9-.73,3.06s.24,2.14.73,3.03c.48.89,1.15,1.58,2.01,2.07.85.49,1.82.74,2.9.74s2.02-.25,2.87-.74c.85-.49,1.52-1.18,1.99-2.07.48-.89.71-1.91.71-3.05s-.24-2.15-.71-3.03Z"/>
        <path class="cls-1" d="m257.82,202.02h3.11l6.21,16.73h-3.24l-1.35-3.81h-6.4l-1.41,3.81h-3.16l6.24-16.73Zm3.84,10.39l-1.07-2.94c-.1-.28-.38-1.11-.84-2.48l-.36-1.05c-.07.23-.23.71-.48,1.44-.25.73-.51,1.43-.78,2.09l-1.1,2.94h4.63Z"/>
        <path class="cls-1" d="m279.53,215.99v2.77h-10v-16.73h3.08v13.97h6.92Z"/>
        <path class="cls-1" d="m300.46,204.79h-5.06v13.97h-3.06v-13.97h-5.11v-2.76h13.23v2.76Z"/>
        <path class="cls-1" d="m302.98,202.02h6.64c2.04,0,3.59.45,4.64,1.36,1.06.9,1.59,2.19,1.59,3.87,0,1.16-.27,2.16-.81,2.98-.54.82-1.3,1.41-2.27,1.78l3.19,6.75h-3.42l-2.82-6.23h-3.68v6.23h-3.06v-16.73Zm6.64,7.84c.99,0,1.75-.24,2.26-.72s.76-1.1.76-1.87-.26-1.38-.77-1.85c-.51-.47-1.26-.71-2.25-.71h-3.58v5.15h3.58Z"/>
        <path class="cls-1" d="m323.63,202.02h3.11l6.21,16.73h-3.24l-1.35-3.81h-6.4l-1.41,3.81h-3.16l6.24-16.73Zm3.84,10.39l-1.07-2.94c-.1-.28-.38-1.11-.84-2.48l-.36-1.05c-.07.23-.23.71-.48,1.44-.25.73-.51,1.43-.78,2.09l-1.1,2.94h4.63Z"/>
        <path class="cls-1" d="m347.12,211.9c.51.67.77,1.49.77,2.47,0,1.39-.51,2.47-1.54,3.24s-2.41,1.15-4.15,1.15h-6.87v-16.73h6.82c1.74,0,3.11.42,4.1,1.26.99.84,1.48,1.93,1.48,3.29,0,.96-.24,1.76-.73,2.41-.48.65-1.15,1.12-1.99,1.42.89.33,1.59.83,2.11,1.5Zm-8.81-7.29v4.68h3.73c.85,0,1.51-.22,1.97-.67s.69-.99.69-1.64-.23-1.2-.69-1.67c-.46-.47-1.12-.7-1.97-.7h-3.73Zm5.88,10.93c.48-.4.72-.95.72-1.64s-.25-1.28-.76-1.71-1.14-.64-1.9-.64h-3.94v4.59h3.94c.82,0,1.46-.2,1.94-.6Z"/>
        <path class="cls-1" d="m355.56,202.02h3.11l6.21,16.73h-3.24l-1.35-3.81h-6.4l-1.41,3.81h-3.16l6.24-16.73Zm3.84,10.39l-1.07-2.94c-.1-.28-.38-1.11-.84-2.48l-.36-1.05c-.07.23-.23.71-.48,1.44-.25.73-.51,1.43-.78,2.09l-1.1,2.94h4.63Z"/>
        <path class="cls-1" d="m376.95,213.92c0,1.58-.51,2.84-1.52,3.77s-2.35,1.4-4.01,1.4c-1.66-.02-2.97-.5-3.94-1.44-.97-.94-1.46-2.19-1.46-3.73v-.83h2.96v.73c0,.82.22,1.44.66,1.87.44.43,1.04.64,1.78.64.8,0,1.41-.22,1.84-.67s.64-1.06.64-1.84v-9.04h-5.25v-2.76h8.3v11.9Z"/>
        <path class="cls-1" d="m396.41,214.89c-.76,1.33-1.82,2.36-3.17,3.1s-2.86,1.11-4.53,1.11-3.18-.37-4.52-1.1c-1.34-.73-2.38-1.76-3.14-3.08-.76-1.33-1.13-2.83-1.13-4.51s.38-3.2,1.13-4.52c.76-1.32,1.8-2.35,3.14-3.09,1.34-.74,2.85-1.11,4.54-1.11s3.18.37,4.52,1.11c1.34.74,2.39,1.77,3.15,3.08.76,1.31,1.15,2.81,1.15,4.5s-.38,3.19-1.15,4.51Zm-2.8-7.54c-.48-.88-1.14-1.57-1.99-2.07-.85-.5-1.81-.74-2.87-.74s-2.05.25-2.9.74c-.85.5-1.52,1.19-2.01,2.07-.48.88-.73,1.9-.73,3.06s.24,2.14.73,3.03c.48.89,1.15,1.58,2.01,2.07.85.49,1.82.74,2.9.74s2.02-.25,2.87-.74c.85-.49,1.52-1.18,1.99-2.07.48-.89.71-1.91.71-3.05s-.24-2.15-.71-3.03Z"/>
      </g>
    </g>
  </g>
</svg>