<?xml version="1.0" encoding="UTF-8"?>
<svg id="Capa_2" data-name="Capa 2" xmlns="http://www.w3.org/2000/svg" viewBox="0 0 1882.93 287.86">
  <defs>
    <style>
      .cls-1 {
        fill: #163330;
        stroke-width: 0px;
      }
    </style>
  </defs>
  <g id="Capa_1-2" data-name="Capa 1">
    <g>
      <g>
        <path class="cls-1" d="m348.32,205.09V20.14h42.72v147.44h89.61v37.51h-132.34Z"/>
        <path class="cls-1" d="m488.73,164.83c0-8.9,2.52-16.68,7.55-23.36,5.03-6.68,11.98-11.94,20.84-15.79,8.86-3.85,19.01-5.77,30.48-5.77,5.56,0,11.02.48,16.41,1.43,5.38.96,10.07,2.31,14.07,4.04v-5.97c0-7.22-2.26-12.76-6.77-16.62-4.52-3.86-11.38-5.8-20.58-5.8-7.64,0-14.81,1.3-21.49,3.91-6.69,2.61-13.77,6.34-21.23,11.2l-12.5-26.57c9.03-5.9,18.45-10.33,28.26-13.29,9.81-2.95,20.19-4.43,31.13-4.43,20.49,0,36.43,4.81,47.81,14.43,11.37,9.62,17.06,23.53,17.06,41.74v34.98c0,4.09.65,6.94,1.95,8.55,1.3,1.62,3.6,2.6,6.9,2.93v34.65c-3.47.69-6.73,1.21-9.77,1.56-3.04.35-5.69.52-7.95.52-7.81,0-13.77-1.56-17.84-4.69-4.09-3.13-6.64-7.38-7.68-12.77l-.79-5.99c-6.08,7.81-13.33,13.77-21.75,17.85-8.43,4.08-17.24,6.12-26.44,6.12s-17.15-1.88-24.36-5.64c-7.21-3.77-12.9-8.9-17.06-15.4-4.17-6.5-6.25-13.78-6.25-21.82Zm82.84,4.88c1.91-1.51,3.47-3.18,4.69-5.02,1.21-1.84,1.83-3.6,1.83-5.27v-11.8c-3.48-1.33-7.34-2.38-11.59-3.13-4.26-.75-8.21-1.13-11.85-1.13-7.64,0-13.98,1.63-19.01,4.9-5.04,3.26-7.55,7.57-7.55,12.92,0,3.01.86,5.77,2.6,8.28,1.73,2.51,4.12,4.52,7.16,6.02,3.04,1.51,6.64,2.26,10.81,2.26s8.34-.75,12.5-2.26c4.17-1.5,7.64-3.43,10.42-5.77Z"/>
        <path class="cls-1" d="m732.04,207.7c-10.42,0-19.54-2.21-27.35-6.64-7.81-4.43-13.98-10.63-18.49-18.62v22.66h-36.21V14.93h41.68v77.89c4.51-7.99,10.55-14.15,18.11-18.49,7.55-4.34,16.45-6.51,26.7-6.51,8.68,0,16.63,1.84,23.84,5.52,7.21,3.68,13.46,8.73,18.76,15.15,5.3,6.42,9.42,13.86,12.38,22.33,2.95,8.47,4.43,17.67,4.43,27.59s-1.61,18.82-4.82,27.21c-3.21,8.38-7.68,15.74-13.41,22.07-5.73,6.34-12.46,11.25-20.19,14.76-7.73,3.51-16.2,5.26-25.4,5.26Zm-11.72-35.17c4.69,0,9.07-.88,13.16-2.65,4.08-1.77,7.6-4.17,10.55-7.21,2.95-3.03,5.21-6.61,6.77-10.74,1.56-4.13,2.35-8.64,2.35-13.53,0-6.24-1.31-12.05-3.91-17.45-2.6-5.39-6.21-9.69-10.81-12.89-4.61-3.2-9.94-4.81-16.03-4.81-4.34,0-8.51,1.01-12.5,3.04-4,2.02-7.55,4.76-10.68,8.21-3.12,3.46-5.64,7.38-7.55,11.76v27.81c1.39,2.87,3.13,5.44,5.21,7.72,2.08,2.28,4.38,4.17,6.9,5.69,2.52,1.52,5.21,2.74,8.08,3.67,2.86.93,5.69,1.39,8.47,1.39Z"/>
        <path class="cls-1" d="m881.83,207.7c-11.64,0-22.01-1.88-31.13-5.64-9.12-3.77-16.8-8.9-23.05-15.4-6.25-6.5-10.99-13.95-14.2-22.33-3.21-8.39-4.82-17.2-4.82-26.44s1.6-18.31,4.82-26.7c3.21-8.38,7.95-15.83,14.2-22.33,6.25-6.5,13.94-11.63,23.05-15.4,9.12-3.77,19.49-5.65,31.13-5.65s21.97,1.88,31,5.65c9.03,3.77,16.67,8.9,22.92,15.4,6.25,6.5,11.02,13.95,14.32,22.33,3.3,8.39,4.95,17.29,4.95,26.7s-1.65,18.05-4.95,26.44c-3.3,8.38-8.08,15.83-14.32,22.33-6.25,6.5-13.9,11.64-22.92,15.4-9.03,3.76-19.37,5.64-31,5.64Zm-30.48-69.81c0,6.91,1.34,12.98,4.04,18.21,2.69,5.23,6.29,9.27,10.81,12.14,4.51,2.87,9.73,4.3,15.63,4.3s10.9-1.47,15.5-4.43c4.6-2.95,8.21-7.04,10.81-12.27,2.6-5.23,3.91-11.21,3.91-17.95s-1.3-12.98-3.91-18.21c-2.6-5.23-6.21-9.27-10.81-12.14-4.61-2.86-9.77-4.3-15.5-4.3s-11.12,1.43-15.63,4.3c-4.51,2.87-8.12,6.92-10.81,12.14-2.7,5.23-4.04,11.29-4.04,18.21Z"/>
        <path class="cls-1" d="m1062.35,104.02c-10.07,0-19.19,1.61-27.35,4.82-8.17,3.22-14.07,7.95-17.72,14.2v82.06h-41.68V69.89h38.29v26.05c4.69-9.21,10.77-16.42,18.23-21.62,7.47-5.21,15.28-7.9,23.44-8.08h4.3c.95,0,1.78.09,2.47.26v37.51Z"/>
        <path class="cls-1" d="m1070.17,164.83c0-8.9,2.52-16.68,7.55-23.36,5.03-6.68,11.98-11.94,20.84-15.79,8.86-3.85,19.01-5.77,30.48-5.77,5.56,0,11.02.48,16.41,1.43,5.38.96,10.07,2.31,14.07,4.04v-5.97c0-7.22-2.26-12.76-6.77-16.62-4.52-3.86-11.38-5.8-20.58-5.8-7.64,0-14.81,1.3-21.49,3.91-6.69,2.61-13.77,6.34-21.23,11.2l-12.5-26.57c9.03-5.9,18.45-10.33,28.26-13.29,9.81-2.95,20.19-4.43,31.13-4.43,20.49,0,36.43,4.81,47.81,14.43,11.37,9.62,17.06,23.53,17.06,41.74v34.98c0,4.09.65,6.94,1.95,8.55,1.3,1.62,3.6,2.6,6.9,2.93v34.65c-3.47.69-6.73,1.21-9.77,1.56-3.04.35-5.69.52-7.95.52-7.81,0-13.77-1.56-17.84-4.69-4.09-3.13-6.64-7.38-7.68-12.77l-.79-5.99c-6.08,7.81-13.33,13.77-21.75,17.85-8.43,4.08-17.24,6.12-26.44,6.12s-17.15-1.88-24.36-5.64c-7.21-3.77-12.9-8.9-17.06-15.4-4.17-6.5-6.25-13.78-6.25-21.82Zm82.84,4.88c1.91-1.51,3.47-3.18,4.69-5.02,1.21-1.84,1.83-3.6,1.83-5.27v-11.8c-3.48-1.33-7.34-2.38-11.59-3.13-4.26-.75-8.21-1.13-11.85-1.13-7.64,0-13.98,1.63-19.01,4.9-5.04,3.26-7.55,7.57-7.55,12.92,0,3.01.86,5.77,2.6,8.28,1.73,2.51,4.12,4.52,7.16,6.02,3.04,1.51,6.64,2.26,10.81,2.26s8.34-.75,12.5-2.26c4.17-1.5,7.64-3.43,10.42-5.77Z"/>
        <path class="cls-1" d="m1230.9,14.93h41.68v141.69c0,5.74,1.04,9.83,3.13,12.26,2.08,2.44,5.03,3.65,8.86,3.65,2.6,0,5.25-.39,7.95-1.17,2.69-.79,5.08-1.7,7.16-2.74l5.47,31.26c-5.21,2.44-11.2,4.35-17.98,5.73-6.77,1.39-13.11,2.08-19.01,2.08-11.81,0-20.97-3.17-27.48-9.52-6.51-6.34-9.77-15.34-9.77-27V14.93Z"/>
        <path class="cls-1" d="m1318.69,52.7V14.93h41.68v37.77h-41.68Zm0,152.39V68.33h41.68v136.76h-41.68Z"/>
        <path class="cls-1" d="m1441.38,207.7c-11.64,0-23.01-1.91-34.13-5.73-11.12-3.82-20.49-9.47-28.13-16.94l14.32-26.31c8.34,6.08,16.45,10.68,24.36,13.81,7.9,3.12,15.32,4.69,22.27,4.69,5.38,0,9.55-.82,12.5-2.46,2.95-1.63,4.43-4.17,4.43-7.62,0-2.56-.87-4.57-2.6-6.03-1.74-1.46-4.39-2.78-7.95-3.97-3.56-1.2-7.95-2.49-13.15-3.85-10.42-3.42-19.11-6.75-26.05-10.01-6.95-3.25-12.16-7.23-15.63-11.93-3.47-4.7-5.21-10.82-5.21-18.35,0-9.07,2.3-16.98,6.9-23.74,4.6-6.75,11.16-12.02,19.67-15.78,8.51-3.77,18.67-5.65,30.48-5.65,9.38,0,18.54,1.48,27.48,4.43,8.94,2.96,17.32,7.91,25.14,14.85l-16.15,26.05c-7.81-5.38-14.77-9.29-20.84-11.72-6.08-2.43-11.98-3.64-17.71-3.64-2.96,0-5.65.34-8.08,1.02-2.44.68-4.39,1.83-5.86,3.45-1.48,1.62-2.21,3.71-2.21,6.27s.73,4.6,2.21,6.14c1.47,1.53,3.82,2.85,7.03,3.96,3.21,1.11,7.25,2.43,12.11,3.96,11.29,3.24,20.67,6.52,28.14,9.85,7.47,3.32,13.07,7.41,16.8,12.27,3.73,4.86,5.6,11.29,5.6,19.3,0,13.64-4.99,24.33-14.98,32.08-9.99,7.76-23.58,11.63-40.77,11.63Z"/>
        <path class="cls-1" d="m1606.02,197.8c-3.83,1.56-8.04,3.12-12.64,4.69-4.6,1.56-9.42,2.82-14.46,3.77-5.04.95-9.99,1.43-14.85,1.43-6.95,0-13.33-1.15-19.14-3.46-5.83-2.31-10.42-6.12-13.81-11.42-3.39-5.3-5.08-12.32-5.08-21.06v-70.34h-17.45v-31.52h17.45V26.39h41.68v43.51h27.87v31.52h-27.87v55.77c0,4.42,1.13,7.6,3.38,9.55,2.25,1.95,5.12,2.92,8.6,2.92,2.95,0,6.12-.52,9.51-1.56,3.39-1.04,6.29-2.17,8.73-3.38l8.08,33.08Z"/>
        <path class="cls-1" d="m1613.57,164.83c0-8.9,2.52-16.68,7.55-23.36,5.03-6.68,11.98-11.94,20.84-15.79,8.86-3.85,19.01-5.77,30.48-5.77,5.56,0,11.02.48,16.41,1.43,5.38.96,10.07,2.31,14.07,4.04v-5.97c0-7.22-2.26-12.76-6.77-16.62-4.52-3.86-11.38-5.8-20.58-5.8-7.64,0-14.81,1.3-21.49,3.91-6.69,2.61-13.77,6.34-21.23,11.2l-12.5-26.57c9.03-5.9,18.45-10.33,28.26-13.29,9.81-2.95,20.19-4.43,31.13-4.43,20.49,0,36.43,4.81,47.81,14.43,11.37,9.62,17.06,23.53,17.06,41.74v34.98c0,4.09.65,6.94,1.95,8.55,1.3,1.62,3.6,2.6,6.9,2.93v34.65c-3.47.69-6.73,1.21-9.77,1.56-3.04.35-5.69.52-7.95.52-7.81,0-13.77-1.56-17.84-4.69-4.09-3.13-6.64-7.38-7.68-12.77l-.79-5.99c-6.08,7.81-13.33,13.77-21.75,17.85-8.43,4.08-17.24,6.12-26.44,6.12s-17.15-1.88-24.36-5.64c-7.21-3.77-12.9-8.9-17.06-15.4-4.17-6.5-6.25-13.78-6.25-21.82Zm82.84,4.88c1.91-1.51,3.47-3.18,4.69-5.02,1.21-1.84,1.83-3.6,1.83-5.27v-11.8c-3.48-1.33-7.34-2.38-11.59-3.13-4.26-.75-8.21-1.13-11.85-1.13-7.64,0-13.98,1.63-19.01,4.9-5.04,3.26-7.55,7.57-7.55,12.92,0,3.01.86,5.77,2.6,8.28,1.73,2.51,4.12,4.52,7.16,6.02,3.04,1.51,6.64,2.26,10.81,2.26s8.34-.75,12.5-2.26c4.17-1.5,7.64-3.43,10.42-5.77Z"/>
        <path class="cls-1" d="m1827.18,207.7c-11.64,0-23.01-1.91-34.13-5.73-11.12-3.82-20.49-9.47-28.13-16.94l14.32-26.31c8.34,6.08,16.45,10.68,24.36,13.81,7.9,3.12,15.32,4.69,22.27,4.69,5.38,0,9.55-.82,12.5-2.46,2.95-1.63,4.43-4.17,4.43-7.62,0-2.56-.87-4.57-2.6-6.03-1.74-1.46-4.39-2.78-7.95-3.97-3.56-1.2-7.95-2.49-13.15-3.85-10.42-3.42-19.11-6.75-26.05-10.01-6.95-3.25-12.16-7.23-15.63-11.93-3.47-4.7-5.21-10.82-5.21-18.35,0-9.07,2.3-16.98,6.9-23.74,4.6-6.75,11.16-12.02,19.67-15.78,8.51-3.77,18.67-5.65,30.48-5.65,9.38,0,18.54,1.48,27.48,4.43,8.94,2.96,17.32,7.91,25.14,14.85l-16.15,26.05c-7.81-5.38-14.77-9.29-20.84-11.72-6.08-2.43-11.98-3.64-17.71-3.64-2.96,0-5.65.34-8.08,1.02-2.44.68-4.39,1.83-5.86,3.45-1.48,1.62-2.21,3.71-2.21,6.27s.73,4.6,2.21,6.14c1.47,1.53,3.82,2.85,7.03,3.96,3.21,1.11,7.25,2.43,12.11,3.96,11.29,3.24,20.67,6.52,28.14,9.85,7.47,3.32,13.07,7.41,16.8,12.27,3.73,4.86,5.6,11.29,5.6,19.3,0,13.64-4.99,24.33-14.98,32.08-9.99,7.76-23.58,11.63-40.77,11.63Z"/>
      </g>
      <g>
        <path class="cls-1" d="m356.58,232.87v19.24h26.89v7.27h-26.89v19.62h29.8v7.69h-38.06v-61.61h38.06v7.79h-29.8Z"/>
        <path class="cls-1" d="m400.05,284.29c-3.18-2.38-4.89-5.52-5.14-9.43h7.79c.19,2.19,1.13,3.88,2.82,5.07,1.69,1.19,3.92,1.78,6.71,1.78s4.9-.55,6.43-1.64c1.53-1.1,2.3-2.65,2.3-4.64s-.61-3.39-1.83-4.25c-1.22-.86-2.78-1.49-4.69-1.9l-7.51-1.73c-3.72-.85-6.47-2.27-8.24-4.27-1.77-2-2.65-4.44-2.65-7.32,0-3.91,1.48-7.04,4.44-9.39,2.96-2.35,6.8-3.52,11.52-3.52s8.72,1.2,11.71,3.61c2.99,2.41,4.54,5.6,4.67,9.57h-7.79c-.07-2.19-.9-3.91-2.51-5.16-1.61-1.25-3.67-1.88-6.17-1.88s-4.26.53-5.66,1.59c-1.39,1.06-2.09,2.55-2.09,4.46,0,1.79.56,3.08,1.66,3.9,1.11.81,2.58,1.41,4.39,1.79l8.54,1.92c3.54.79,6.16,2.22,7.88,4.3,1.72,2.08,2.58,4.59,2.58,7.53,0,4.04-1.54,7.24-4.62,9.62-3.08,2.38-7.2,3.57-12.37,3.57s-9-1.19-12.18-3.57Z"/>
        <path class="cls-1" d="m505.19,244.31v42.38h-6.52l-.89-5.77c-1.41,2.32-3.29,4.05-5.65,5.21-2.36,1.16-5.01,1.73-7.95,1.73-4.94,0-8.77-1.48-11.5-4.44-2.72-2.95-4.08-6.94-4.08-11.94v-20.55h-17.13v35.76h-7.98v-35.76h-8.26v-6.62h8.26v-11.26h7.98v11.26h25.1v25.67c0,3.91.87,6.69,2.63,8.35,1.75,1.66,4.24,2.49,7.46,2.49s5.75-1.1,7.67-3.31c1.92-2.21,2.89-5.14,2.89-8.8v-24.4h7.98Z"/>
        <path class="cls-1" d="m559.2,220.76v65.93h-6.52l-.7-7.6c-1.34,2.63-3.47,4.75-6.38,6.36-2.91,1.61-6.19,2.41-9.85,2.41-3.97,0-7.51-.93-10.61-2.79-3.1-1.86-5.51-4.49-7.25-7.88-1.74-3.39-2.6-7.31-2.6-11.75s.88-8.32,2.65-11.71c1.77-3.39,4.2-6.02,7.3-7.88,3.1-1.86,6.63-2.79,10.6-2.79,3.53,0,6.66.67,9.38,2.02,2.72,1.34,4.82,3.21,6.29,5.58v-29.89h7.69Zm-12.01,55.7c2.57-2.78,3.85-6.52,3.85-11.22s-1.26-8.16-3.8-10.89c-2.53-2.72-5.85-4.08-9.94-4.08s-7.59,1.39-10.09,4.18c-2.5,2.78-3.75,6.44-3.75,10.98s1.25,8.2,3.75,11c2.51,2.8,5.81,4.2,9.9,4.2s7.53-1.39,10.09-4.17Z"/>
        <path class="cls-1" d="m572.06,232.25c-1.13-1.13-1.69-2.52-1.69-4.17s.56-2.94,1.69-4.04c1.13-1.09,2.52-1.64,4.18-1.64s3.12.55,4.22,1.64c1.1,1.1,1.64,2.44,1.64,4.04s-.54,2.97-1.62,4.13c-1.08,1.16-2.5,1.74-4.24,1.74s-3.05-.56-4.18-1.69Zm.24,12.06h7.98v42.38h-7.98v-42.38Z"/>
        <path class="cls-1" d="m593.81,254.1c1.92-3.39,4.62-6.09,8.08-8.07,3.45-1.99,7.39-2.98,11.8-2.98s8.37.99,11.87,2.98c3.5,1.99,6.22,4.68,8.14,8.07,1.92,3.39,2.89,7.2,2.89,11.43s-.98,7.95-2.93,11.35c-1.96,3.41-4.66,6.09-8.12,8.05-3.46,1.96-7.41,2.93-11.85,2.93s-8.25-.98-11.71-2.93c-3.46-1.95-6.16-4.63-8.12-8.02-1.96-3.39-2.93-7.18-2.93-11.38s.96-8.03,2.88-11.43Zm9.46,22.31c2.72,2.88,6.2,4.32,10.42,4.32s7.89-1.44,10.63-4.32c2.74-2.88,4.11-6.5,4.11-10.88s-1.36-8.07-4.09-10.98c-2.72-2.91-6.27-4.37-10.65-4.37s-7.69,1.46-10.42,4.37c-2.72,2.91-4.08,6.57-4.08,10.98s1.36,8.01,4.08,10.88Z"/>
        <path class="cls-1" d="m704.15,269.47c0,5.63-1.75,10.1-5.23,13.42-3.49,3.32-8.11,4.97-13.86,4.97s-10.45-1.68-13.89-5.04c-3.44-3.36-5.16-7.84-5.16-13.44v-2.58h8.16v2.39c0,3.66.96,6.44,2.89,8.33,1.92,1.89,4.56,2.84,7.9,2.84,3.6,0,6.3-.99,8.12-2.98,1.81-1.99,2.72-4.71,2.72-8.19v-36.42h-21.02v-7.69h29.38v44.39Z"/>
        <path class="cls-1" d="m753.71,244.31v42.38h-6.53l-.75-6.15c-1.34,2.44-3.21,4.27-5.58,5.49-2.38,1.22-5.1,1.83-8.16,1.83-4.95,0-8.78-1.48-11.5-4.44-2.72-2.95-4.09-6.94-4.09-11.94v-27.17h7.98v25.67c0,3.91.88,6.69,2.65,8.35,1.77,1.66,4.24,2.49,7.44,2.49s5.75-1.1,7.67-3.31c1.92-2.21,2.89-5.14,2.89-8.8v-24.4h7.98Z"/>
        <path class="cls-1" d="m789.65,244.31v6.81c-.72-.13-1.72-.19-3-.19-3.84,0-6.81,1.14-8.89,3.42-2.08,2.29-3.12,5.44-3.12,9.48v22.85h-7.98v-42.38h7.04l.94,6.43c.72-2.19,2.07-3.87,4.06-5.04,1.99-1.17,4.3-1.76,6.92-1.76,1.41,0,2.75.13,4.04.37Z"/>
        <path class="cls-1" d="m805.93,244.31v42.38h-7.98v-42.38h7.98Zm-6.52-7.6l12.39-13.65,4.64,4.5-14.55,11.73-2.49-2.58Z"/>
        <path class="cls-1" d="m860.41,220.76v65.93h-6.52l-.7-7.6c-1.34,2.63-3.47,4.75-6.38,6.36-2.91,1.61-6.19,2.41-9.85,2.41-3.97,0-7.51-.93-10.61-2.79-3.1-1.86-5.51-4.49-7.25-7.88-1.74-3.39-2.6-7.31-2.6-11.75s.88-8.32,2.65-11.71c1.77-3.39,4.2-6.02,7.3-7.88,3.1-1.86,6.63-2.79,10.6-2.79,3.53,0,6.66.67,9.38,2.02,2.72,1.34,4.82,3.21,6.29,5.58v-29.89h7.69Zm-12.01,55.7c2.57-2.78,3.85-6.52,3.85-11.22s-1.26-8.16-3.8-10.89c-2.53-2.72-5.85-4.08-9.94-4.08s-7.59,1.39-10.09,4.18c-2.5,2.78-3.75,6.44-3.75,10.98s1.25,8.2,3.75,11c2.51,2.8,5.81,4.2,9.9,4.2s7.53-1.39,10.09-4.17Z"/>
        <path class="cls-1" d="m873.27,232.25c-1.13-1.13-1.69-2.52-1.69-4.17s.56-2.94,1.69-4.04c1.13-1.09,2.52-1.64,4.18-1.64s3.12.55,4.22,1.64c1.1,1.1,1.64,2.44,1.64,4.04s-.54,2.97-1.62,4.13c-1.08,1.16-2.5,1.74-4.24,1.74s-3.05-.56-4.18-1.69Zm.24,12.06h7.98v42.38h-7.98v-42.38Z"/>
        <path class="cls-1" d="m894.93,253.72c1.86-3.39,4.44-6.02,7.75-7.88,3.3-1.86,7.09-2.79,11.38-2.79,5.44,0,10.03,1.39,13.75,4.17,3.72,2.78,5.96,6.56,6.71,11.31h-8.16c-.63-2.63-2.05-4.7-4.27-6.2-2.22-1.5-4.92-2.25-8.12-2.25-4.1,0-7.42,1.38-9.95,4.13-2.53,2.75-3.8,6.52-3.8,11.31s1.22,8.3,3.66,11.1c2.44,2.8,5.8,4.2,10.09,4.2,3.19,0,5.91-.77,8.17-2.3,2.25-1.53,3.66-3.55,4.22-6.05h8.16c-.78,4.6-3.04,8.31-6.78,11.14-3.74,2.83-8.27,4.24-13.58,4.24-4.35,0-8.19-.93-11.52-2.79-3.33-1.86-5.91-4.49-7.75-7.88-1.83-3.39-2.74-7.31-2.74-11.75s.93-8.32,2.79-11.71Z"/>
        <path class="cls-1" d="m944.81,254.1c1.92-3.39,4.62-6.09,8.08-8.07,3.45-1.99,7.39-2.98,11.8-2.98s8.37.99,11.87,2.98c3.5,1.99,6.22,4.68,8.14,8.07,1.92,3.39,2.89,7.2,2.89,11.43s-.98,7.95-2.93,11.35c-1.96,3.41-4.66,6.09-8.12,8.05-3.46,1.96-7.41,2.93-11.85,2.93s-8.25-.98-11.71-2.93c-3.46-1.95-6.16-4.63-8.12-8.02-1.96-3.39-2.93-7.18-2.93-11.38s.96-8.03,2.88-11.43Zm9.46,22.31c2.72,2.88,6.2,4.32,10.42,4.32s7.89-1.44,10.63-4.32c2.74-2.88,4.11-6.5,4.11-10.88s-1.36-8.07-4.09-10.98c-2.72-2.91-6.27-4.37-10.65-4.37s-7.69,1.46-10.42,4.37c-2.72,2.91-4.08,6.57-4.08,10.98s1.36,8.01,4.08,10.88Z"/>
      </g>
      <g>
        <rect class="cls-1" width="40.95" height="122.92"/>
        <rect class="cls-1" x="81.89" width="40.95" height="122.92"/>
        <polyline class="cls-1" points="286.75 204.86 286.75 162.17 286.75 126.53 286.75 81.94 239.68 81.94 163.78 81.94 163.78 122.92 245.68 122.92 245.68 163.89 0 163.89 0 204.86"/>
        <rect class="cls-1" x="163.78" width="40.95" height="40.97"/>
        <rect class="cls-1" x="245.68" width="40.95" height="40.97"/>
        <rect class="cls-1" x="81.94" y="163.89" width="40.86" height="204.73" transform="translate(368.62 163.89) rotate(90)"/>
        <rect class="cls-1" x="245.8" y="245.77" width="40.95" height="40.97"/>
      </g>
    </g>
  </g>
</svg>