<?xml version="1.0" encoding="UTF-8"?>
<svg id="Capa_2" data-name="Capa 2" xmlns="http://www.w3.org/2000/svg" viewBox="0 0 373.18 373.19">
  <defs>
    <style>
      .cls-1 {
        fill: #153330;
        font-family: Gelion-Regular, Gelion;
        font-size: 28.45px;
      }
    </style>
  </defs>
  <g id="Capa_1-2" data-name="Capa 1">
    <g>
      <text class="cls-1" transform="translate(178.71 23.2) rotate(.93)"><tspan x="0" y="0">V</tspan></text>
      <text class="cls-1" transform="translate(194.97 23.21) rotate(6.56)"><tspan x="0" y="0">O</tspan></text>
      <text class="cls-1" transform="translate(215.41 25.75) rotate(12.36)"><tspan x="0" y="0">L</tspan></text>
      <text class="cls-1" transform="translate(226.09 27.91) rotate(17)"><tspan x="0" y="0">V</tspan></text>
      <text class="cls-1" transform="translate(242.27 32.9) rotate(22.55)"><tspan x="0" y="0">E</tspan></text>
      <text class="cls-1" transform="translate(255.7 38.41) rotate(27.99)"><tspan x="0" y="0">R</tspan></text>
      <text class="cls-1" transform="translate(270.13 46.27) rotate(32.01)"><tspan x="0" y="0"> </tspan></text>
      <text class="cls-1" transform="translate(275.7 49.52) rotate(36.04)"><tspan x="0" y="0">A</tspan></text>
      <text class="cls-1" transform="translate(289.03 59.2) rotate(41.77)"><tspan x="0" y="0">R</tspan></text>
      <text class="cls-1" transform="translate(301.25 70.08) rotate(47.47)"><tspan x="0" y="0">R</tspan></text>
      <text class="cls-1" transform="translate(312.26 82.33) rotate(51.45)"><tspan x="0" y="0">I</tspan></text>
      <text class="cls-1" transform="translate(316.37 87.2) rotate(55.38)"><tspan x="0" y="0">B</tspan></text>
      <text class="cls-1" transform="translate(325.21 99.9) rotate(60.89)"><tspan x="0" y="0">A</tspan></text>
      <text class="cls-1" transform="translate(333.14 114.49) rotate(64.95)"><tspan x="0" y="0"> </tspan></text>
      <text class="cls-1" transform="translate(335.99 120.3) rotate(68.51)"><tspan x="0" y="0">•</tspan></text>
      <text class="cls-1" transform="translate(340.93 133.13) rotate(72.09)"><tspan x="0" y="0"> </tspan></text>
      <text class="cls-1" transform="translate(343.04 139.25) rotate(75.66)"><tspan x="0" y="0">•</tspan></text>
      <text class="cls-1" transform="translate(346.34 152.59) rotate(79.23)"><tspan x="0" y="0"> </tspan></text>
      <text class="cls-1" transform="translate(347.67 158.95) rotate(82.79)"><tspan x="0" y="0">•</tspan></text>
      <text class="cls-1" transform="translate(349.29 172.57) rotate(86.32)"><tspan x="0" y="0"> </tspan></text>
      <text class="cls-1" transform="translate(349.99 178.94) rotate(90.93)"><tspan x="0" y="0">V</tspan></text>
      <text class="cls-1" transform="translate(349.96 195.23) rotate(96.65)"><tspan x="0" y="0">O</tspan></text>
      <text class="cls-1" transform="translate(347.4 215.66) rotate(102.45)"><tspan x="0" y="0">L</tspan></text>
      <text class="cls-1" transform="translate(345.22 226.34) rotate(107.09)"><tspan x="0" y="0">V</tspan></text>
      <text class="cls-1" transform="translate(340.21 242.51) rotate(112.64)"><tspan x="0" y="0">E</tspan></text>
      <text class="cls-1" transform="translate(334.68 255.92) rotate(118.08)"><tspan x="0" y="0">R</tspan></text>
      <text class="cls-1" transform="translate(326.78 270.37) rotate(122.1)"><tspan x="0" y="0"> </tspan></text>
      <text class="cls-1" transform="translate(323.52 275.94) rotate(126.14)"><tspan x="0" y="0">A</tspan></text>
      <text class="cls-1" transform="translate(313.81 289.25) rotate(131.86)"><tspan x="0" y="0">R</tspan></text>
      <text class="cls-1" transform="translate(302.94 301.43) rotate(137.55)"><tspan x="0" y="0">R</tspan></text>
      <text class="cls-1" transform="translate(290.67 312.42) rotate(141.54)"><tspan x="0" y="0">I</tspan></text>
      <text class="cls-1" transform="translate(285.79 316.52) rotate(145.46)"><tspan x="0" y="0">B</tspan></text>
      <text class="cls-1" transform="translate(273.05 325.36) rotate(150.99)"><tspan x="0" y="0">A</tspan></text>
      <text class="cls-1" transform="translate(258.48 333.25) rotate(155.04)"><tspan x="0" y="0"> </tspan></text>
      <text class="cls-1" transform="translate(252.63 336.11) rotate(158.61)"><tspan x="0" y="0">•</tspan></text>
      <text class="cls-1" transform="translate(239.83 341.01) rotate(162.18)"><tspan x="0" y="0"> </tspan></text>
      <text class="cls-1" transform="translate(233.7 343.11) rotate(165.75)"><tspan x="0" y="0">•</tspan></text>
      <text class="cls-1" transform="translate(220.35 346.39) rotate(169.32)"><tspan x="0" y="0"> </tspan></text>
      <text class="cls-1" transform="translate(213.99 347.71) rotate(172.88)"><tspan x="0" y="0">•</tspan></text>
      <text class="cls-1" transform="translate(200.36 349.31) rotate(176.41)"><tspan x="0" y="0"> </tspan></text>
      <text class="cls-1" transform="translate(193.98 349.99) rotate(-179.07)"><tspan x="0" y="0">V</tspan></text>
      <text class="cls-1" transform="translate(177.7 349.95) rotate(-173.26)"><tspan x="0" y="0">O</tspan></text>
      <text class="cls-1" transform="translate(157.24 347.35) rotate(-167.45)"><tspan x="0" y="0">L</tspan></text>
      <text class="cls-1" transform="translate(146.57 345.15) rotate(-162.81)"><tspan x="0" y="0">V</tspan></text>
      <text class="cls-1" transform="translate(130.45 340.12) rotate(-157.27)"><tspan x="0" y="0">E</tspan></text>
      <text class="cls-1" transform="translate(117.04 334.58) rotate(-151.83)"><tspan x="0" y="0">R</tspan></text>
      <text class="cls-1" transform="translate(102.61 326.66) rotate(-147.81)"><tspan x="0" y="0"> </tspan></text>
      <text class="cls-1" transform="translate(97.05 323.38) rotate(-143.78)"><tspan x="0" y="0">A</tspan></text>
      <text class="cls-1" transform="translate(83.75 313.66) rotate(-138.05)"><tspan x="0" y="0">R</tspan></text>
      <text class="cls-1" transform="translate(71.57 302.75) rotate(-132.35)"><tspan x="0" y="0">R</tspan></text>
      <text class="cls-1" transform="translate(60.61 290.49) rotate(-128.38)"><tspan x="0" y="0">I</tspan></text>
      <text class="cls-1" transform="translate(56.5 285.58) rotate(-124.44)"><tspan x="0" y="0">B</tspan></text>
      <text class="cls-1" transform="translate(47.7 272.85) rotate(-118.92)"><tspan x="0" y="0">A</tspan></text>
      <text class="cls-1" transform="translate(39.81 258.23) rotate(-114.86)"><tspan x="0" y="0"> </tspan></text>
      <text class="cls-1" transform="translate(36.98 252.41) rotate(-111.3)"><tspan x="0" y="0">•</tspan></text>
      <text class="cls-1" transform="translate(32.1 239.59) rotate(-107.73)"><tspan x="0" y="0"> </tspan></text>
      <text class="cls-1" transform="translate(30 233.43) rotate(-104.15)"><tspan x="0" y="0">•</tspan></text>
      <text class="cls-1" transform="translate(26.75 220.11) rotate(-100.59)"><tspan x="0" y="0"> </tspan></text>
      <text class="cls-1" transform="translate(25.43 213.74) rotate(-97.03)"><tspan x="0" y="0">•</tspan></text>
      <text class="cls-1" transform="translate(23.85 200.1) rotate(-93.5)"><tspan x="0" y="0"> </tspan></text>
      <text class="cls-1" transform="translate(23.21 193.69) rotate(-89.07)"><tspan x="0" y="0">V</tspan></text>
      <text class="cls-1" transform="translate(23.25 177.45) rotate(-83.17)"><tspan x="0" y="0">O</tspan></text>
      <text class="cls-1" transform="translate(25.88 157) rotate(-77.36)"><tspan x="0" y="0">L</tspan></text>
      <text class="cls-1" transform="translate(28.1 146.33) rotate(-72.72)"><tspan x="0" y="0">V</tspan></text>
      <text class="cls-1" transform="translate(33.16 130.19) rotate(-67.17)"><tspan x="0" y="0">E</tspan></text>
      <text class="cls-1" transform="translate(38.73 116.79) rotate(-61.74)"><tspan x="0" y="0">R</tspan></text>
      <text class="cls-1" transform="translate(46.67 102.37) rotate(-57.71)"><tspan x="0" y="0"> </tspan></text>
      <text class="cls-1" transform="translate(49.96 96.82) rotate(-53.68)"><tspan x="0" y="0">A</tspan></text>
      <text class="cls-1" transform="translate(59.7 83.54) rotate(-47.96)"><tspan x="0" y="0">R</tspan></text>
      <text class="cls-1" transform="translate(70.62 71.4) rotate(-42.27)"><tspan x="0" y="0">R</tspan></text>
      <text class="cls-1" transform="translate(82.91 60.44) rotate(-38.28)"><tspan x="0" y="0">I</tspan></text>
      <text class="cls-1" transform="translate(87.81 56.35) rotate(-34.35)"><tspan x="0" y="0">B</tspan></text>
      <text class="cls-1" transform="translate(100.55 47.57) rotate(-28.84)"><tspan x="0" y="0">A</tspan></text>
      <text class="cls-1" transform="translate(115.18 39.71) rotate(-24.78)"><tspan x="0" y="0"> </tspan></text>
      <text class="cls-1" transform="translate(121.01 36.88) rotate(-21.21)"><tspan x="0" y="0">•</tspan></text>
      <text class="cls-1" transform="translate(133.86 32.01) rotate(-17.63)"><tspan x="0" y="0"> </tspan></text>
      <text class="cls-1" transform="translate(140 29.93) rotate(-14.06)"><tspan x="0" y="0">•</tspan></text>
      <text class="cls-1" transform="translate(153.33 26.7) rotate(-10.5)"><tspan x="0" y="0"> </tspan></text>
      <text class="cls-1" transform="translate(159.71 25.39) rotate(-6.94)"><tspan x="0" y="0">•</tspan></text>
      <text class="cls-1" transform="translate(173.35 23.84) rotate(-3.41)"><tspan x="0" y="0"> </tspan></text>
      <text class="cls-1" transform="translate(179.92 23.44) rotate(-1.13)"><tspan x="0" y="0"> </tspan></text>
    </g>
  </g>
</svg>