<?xml version="1.0" encoding="UTF-8"?>
<svg id="Capa_2" data-name="Capa 2" xmlns="http://www.w3.org/2000/svg" viewBox="0 0 26.95 156.58">
  <defs>
    <style>
      .cls-1 {
        fill: #333436;
      }

      .cls-1, .cls-2, .cls-3 {
        stroke-width: 0px;
      }

      .cls-2 {
        fill: #fff;
      }

      .cls-3 {
        fill: #ba1b1a;
      }
    </style>
  </defs>
  <g id="Capa_1-2" data-name="Capa 1">
    <g>
      <g>
        <rect class="cls-3" x="18.43" y="0" width="8.52" height="8.6"/>
        <rect class="cls-3" x="18.43" y="9.21" width="8.52" height="8.57"/>
        <rect class="cls-3" x="18.43" y="27.64" width="8.52" height="8.57"/>
        <rect class="cls-1" x="18.43" y="36.86" width="8.52" height="8.57"/>
        <rect class="cls-1" x="18.43" y="55.24" width="8.52" height="8.6"/>
        <rect class="cls-3" x="18.43" y="64.45" width="8.52" height="8.57"/>
        <rect class="cls-3" x="18.43" y="73.67" width="8.52" height="8.57"/>
        <rect class="cls-1" x="18.43" y="82.88" width="8.52" height="8.57"/>
        <rect class="cls-1" x="18.43" y="92.1" width="8.52" height="8.57"/>
        <rect class="cls-3" x="18.43" y="101.29" width="8.52" height="8.57"/>
        <rect class="cls-3" x="18.43" y="110.5" width="8.52" height="8.57"/>
        <rect class="cls-3" x="18.43" y="119.72" width="8.52" height="8.57"/>
        <rect class="cls-1" x="18.43" y="138.15" width="8.52" height="8.57"/>
        <rect class="cls-1" x="18.43" y="147.33" width="8.52" height="8.57"/>
        <rect class="cls-3" x="9.22" y="9.21" width="8.52" height="8.57"/>
        <rect class="cls-3" x="9.22" y="18.43" width="8.52" height="8.57"/>
        <rect class="cls-1" x="9.22" y="36.86" width="8.52" height="8.57"/>
        <rect class="cls-1" x="9.22" y="46.05" width="8.52" height="8.6"/>
        <rect class="cls-3" x="9.22" y="73.67" width="8.52" height="8.57"/>
        <rect class="cls-3" x="9.22" y="92.1" width="8.52" height="8.57"/>
        <rect class="cls-3" x="9.22" y="101.29" width="8.52" height="8.57"/>
        <rect class="cls-3" x="9.22" y="119.72" width="8.52" height="8.57"/>
        <rect class="cls-3" x="9.22" y="128.93" width="8.52" height="8.57"/>
        <rect class="cls-1" x="9.22" y="138.15" width="8.52" height="8.57"/>
        <rect class="cls-1" x="9.22" y="147.33" width="8.52" height="8.57"/>
        <rect class="cls-3" x="0" y="138.15" width="8.55" height="8.57"/>
      </g>
      <rect class="cls-2" x="13.14" y="151.98" width=".67" height="8.52" transform="translate(-142.77 169.72) rotate(-90)"/>
      <rect class="cls-2" x="22.36" y="151.98" width=".67" height="8.52" transform="translate(-133.55 178.93) rotate(-90)"/>
    </g>
  </g>
</svg>